<svg width="16" height="16" viewBox="0 0 16 16" fill="none" xmlns="http://www.w3.org/2000/svg">
<path d="M10.1631 15.1663H5.84314C4.58314 15.1663 3.66314 14.6397 3.3098 13.733C2.94314 12.7863 3.28314 11.613 4.16314 10.8197L7.25647 7.99967L4.16314 5.17967C3.28314 4.38634 2.94314 3.21301 3.3098 2.26634C3.66314 1.35301 4.58314 0.833008 5.84314 0.833008H10.1631C11.4231 0.833008 12.3431 1.35967 12.6965 2.26634C13.0631 3.21301 12.7231 4.38634 11.8431 5.17967L8.7498 7.99967L11.8498 10.8197C12.7231 11.613 13.0698 12.7863 12.7031 13.733C12.3431 14.6397 11.4231 15.1663 10.1631 15.1663ZM8.00314 8.67301L4.83647 11.553C4.27647 12.0663 4.0298 12.813 4.24314 13.3663C4.44314 13.8797 5.0098 14.1663 5.84314 14.1663H10.1631C10.9965 14.1663 11.5631 13.8863 11.7631 13.3663C11.9765 12.813 11.7365 12.0663 11.1698 11.553L8.00314 8.67301ZM5.84314 1.83301C5.0098 1.83301 4.44314 2.11301 4.24314 2.63301C4.0298 3.18634 4.2698 3.93301 4.83647 4.44634L8.00314 7.32634L11.1698 4.44634C11.7298 3.93301 11.9765 3.18634 11.7631 2.63301C11.5631 2.11967 10.9965 1.83301 10.1631 1.83301H5.84314Z" fill="#888888"/>
</svg>
