<svg width="155" height="120" viewBox="0 0 155 120" fill="none" xmlns="http://www.w3.org/2000/svg">
<rect width="155" height="120" rx="16" fill="#101010"/>
<rect width="155" height="120" rx="16" fill="url(#paint0_radial_1446_18941)" fill-opacity="0.15"/>
<rect x="0.5" y="0.5" width="154" height="119" rx="15.5" stroke="white" stroke-opacity="0.3"/>
<g clip-path="url(#clip0_1446_18941)">
<path d="M72.7812 28.2188V55.7812H45.2188V28.2188H72.7812ZM72.7812 24H45.2188C42.8886 24 41 25.8886 41 28.2188V55.7812C41 58.1114 42.8886 60 45.2188 60H72.7812C75.1114 60 77 58.1114 77 55.7812V28.2188C77 25.8886 75.1114 24 72.7812 24Z" fill="black"/>
<path d="M72.7812 28.2188V55.7812H45.2188V28.2188H72.7812ZM72.7812 24H45.2188C42.8886 24 41 25.8886 41 28.2188V55.7812C41 58.1114 42.8886 60 45.2188 60H72.7812C75.1114 60 77 58.1114 77 55.7812V28.2188C77 25.8886 75.1114 24 72.7812 24Z" fill="url(#paint1_linear_1446_18941)"/>
<path d="M61.7844 46.6772H56.1945L55.2664 49.3983H51.4695L56.9328 34.5905H61.0883L66.5516 49.3983H62.7125L61.7844 46.6772ZM60.8563 43.935L59 38.4506L57.1227 43.935H60.8563Z" fill="black"/>
<path d="M61.7844 46.6772H56.1945L55.2664 49.3983H51.4695L56.9328 34.5905H61.0883L66.5516 49.3983H62.7125L61.7844 46.6772ZM60.8563 43.935L59 38.4506L57.1227 43.935H60.8563Z" fill="url(#paint2_linear_1446_18941)"/>
<path d="M108.781 28.2188V55.7812H81.2188V28.2188H108.781ZM108.781 24H81.2188C78.8886 24 77 25.8886 77 28.2188V55.7812C77 58.1114 78.8886 60 81.2188 60H108.781C111.111 60 113 58.1114 113 55.7812V28.2188C113 25.8886 111.111 24 108.781 24Z" fill="black"/>
<path d="M108.781 28.2188V55.7812H81.2188V28.2188H108.781ZM108.781 24H81.2188C78.8886 24 77 25.8886 77 28.2188V55.7812C77 58.1114 78.8886 60 81.2188 60H108.781C111.111 60 113 58.1114 113 55.7812V28.2188C113 25.8886 111.111 24 108.781 24Z" fill="url(#paint3_linear_1446_18941)"/>
<path d="M100.442 43.028C100.97 43.6889 101.234 44.4553 101.234 45.3272C101.234 46.6069 100.808 47.6053 99.957 48.3225C99.1063 49.0397 97.8856 49.3983 96.298 49.3983H89.3581V34.485H96.1292C97.648 34.485 98.8222 34.8155 99.6519 35.4764C100.482 36.1373 100.896 37.0795 100.896 38.303C100.896 39.203 100.657 39.9525 100.179 40.5502C99.7011 41.1478 99.0753 41.5387 98.3019 41.7216C99.2005 41.9311 99.9148 42.367 100.442 43.028ZM92.9637 40.5797H95.3263C96.5778 40.5797 97.2036 40.0453 97.2036 38.9766C97.2036 37.9078 96.5637 37.3734 95.2841 37.3734H92.9637V40.5797ZM97.5411 44.8209C97.5411 44.2866 97.3653 43.8689 97.0138 43.5666C96.6622 43.2642 96.163 43.1123 95.5161 43.1123H92.9637V46.4662H95.5372C96.8731 46.4662 97.5411 45.9164 97.5411 44.8209Z" fill="black"/>
<path d="M100.442 43.028C100.97 43.6889 101.234 44.4553 101.234 45.3272C101.234 46.6069 100.808 47.6053 99.957 48.3225C99.1063 49.0397 97.8856 49.3983 96.298 49.3983H89.3581V34.485H96.1292C97.648 34.485 98.8222 34.8155 99.6519 35.4764C100.482 36.1373 100.896 37.0795 100.896 38.303C100.896 39.203 100.657 39.9525 100.179 40.5502C99.7011 41.1478 99.0753 41.5387 98.3019 41.7216C99.2005 41.9311 99.9148 42.367 100.442 43.028ZM92.9637 40.5797H95.3263C96.5778 40.5797 97.2036 40.0453 97.2036 38.9766C97.2036 37.9078 96.5637 37.3734 95.2841 37.3734H92.9637V40.5797ZM97.5411 44.8209C97.5411 44.2866 97.3653 43.8689 97.0138 43.5666C96.6622 43.2642 96.163 43.1123 95.5161 43.1123H92.9637V46.4662H95.5372C96.8731 46.4662 97.5411 45.9164 97.5411 44.8209Z" fill="url(#paint4_linear_1446_18941)"/>
<path d="M72.7812 64.2188V91.7812H45.2188V64.2188H72.7812ZM72.7812 60H45.2188C42.8886 60 41 61.8886 41 64.2188V91.7812C41 94.1114 42.8886 96 45.2188 96H72.7812C75.1114 96 77 94.1114 77 91.7812V64.2188C77 61.8886 75.1114 60 72.7812 60Z" fill="black"/>
<path d="M72.7812 64.2188V91.7812H45.2188V64.2188H72.7812ZM72.7812 60H45.2188C42.8886 60 41 61.8886 41 64.2188V91.7812C41 94.1114 42.8886 96 45.2188 96H72.7812C75.1114 96 77 94.1114 77 91.7812V64.2188C77 61.8886 75.1114 60 72.7812 60Z" fill="url(#paint5_linear_1446_18941)"/>
<path d="M63.7883 71.8336C65.0328 72.832 65.8372 74.182 66.2028 75.8836H62.3848C62.1036 75.1945 61.6705 74.6531 61.0883 74.2594C60.5047 73.8656 59.8114 73.6688 59.0098 73.6688C57.9552 73.6688 57.1044 74.0555 56.4575 74.8289C55.8106 75.6023 55.4872 76.6359 55.4872 77.9297C55.4872 79.2234 55.8106 80.2542 56.4575 81.0192C57.1044 81.7856 57.9552 82.1681 59.0098 82.1681C59.8114 82.1681 60.5033 81.9712 61.0883 81.5775C61.6719 81.1838 62.1036 80.6494 62.3848 79.9744H66.2028C65.8372 81.6619 65.0314 83.0091 63.7883 84.0131C62.5437 85.0186 60.9716 85.522 59.0731 85.522C57.6247 85.522 56.352 85.2028 55.2552 84.5616C54.1583 83.9217 53.3103 83.0259 52.7141 81.8714C52.1164 80.7183 51.8169 79.4034 51.8169 77.9269C51.8169 76.4503 52.115 75.1355 52.7141 73.9823C53.3117 72.8292 54.1583 71.9334 55.2552 71.2922C56.352 70.6523 57.6247 70.3331 59.0731 70.3331C60.973 70.3359 62.5437 70.8366 63.7883 71.8336Z" fill="black"/>
<path d="M63.7883 71.8336C65.0328 72.832 65.8372 74.182 66.2028 75.8836H62.3848C62.1036 75.1945 61.6705 74.6531 61.0883 74.2594C60.5047 73.8656 59.8114 73.6688 59.0098 73.6688C57.9552 73.6688 57.1044 74.0555 56.4575 74.8289C55.8106 75.6023 55.4872 76.6359 55.4872 77.9297C55.4872 79.2234 55.8106 80.2542 56.4575 81.0192C57.1044 81.7856 57.9552 82.1681 59.0098 82.1681C59.8114 82.1681 60.5033 81.9712 61.0883 81.5775C61.6719 81.1838 62.1036 80.6494 62.3848 79.9744H66.2028C65.8372 81.6619 65.0314 83.0091 63.7883 84.0131C62.5437 85.0186 60.9716 85.522 59.0731 85.522C57.6247 85.522 56.352 85.2028 55.2552 84.5616C54.1583 83.9217 53.3103 83.0259 52.7141 81.8714C52.1164 80.7183 51.8169 79.4034 51.8169 77.9269C51.8169 76.4503 52.115 75.1355 52.7141 73.9823C53.3117 72.8292 54.1583 71.9334 55.2552 71.2922C56.352 70.6523 57.6247 70.3331 59.0731 70.3331C60.973 70.3359 62.5437 70.8366 63.7883 71.8336Z" fill="url(#paint6_linear_1446_18941)"/>
<path d="M108.781 64.2188V91.7812H81.2188V64.2188H108.781ZM108.781 60H81.2188C78.8886 60 77 61.8886 77 64.2188V91.7812C77 94.1114 78.8886 96 81.2188 96H108.781C111.111 96 113 94.1114 113 91.7812V64.2188C113 61.8886 111.111 60 108.781 60Z" fill="black"/>
<path d="M108.781 64.2188V91.7812H81.2188V64.2188H108.781ZM108.781 60H81.2188C78.8886 60 77 61.8886 77 64.2188V91.7812C77 94.1114 78.8886 96 81.2188 96H108.781C111.111 96 113 94.1114 113 91.7812V64.2188C113 61.8886 111.111 60 108.781 60Z" fill="url(#paint7_linear_1446_18941)"/>
<path d="M100.991 81.8011C100.365 82.9331 99.4648 83.8162 98.2906 84.4491C97.1164 85.0819 95.7341 85.3983 94.145 85.3983H88.513V70.4836H94.145C95.7481 70.4836 97.1333 70.793 98.3005 71.4117C99.4677 72.0305 100.363 72.9023 100.991 74.0273C101.616 75.1523 101.929 76.4461 101.929 77.9086C101.93 79.3725 101.616 80.6691 100.991 81.8011ZM97.1094 81.0516C97.8898 80.3063 98.2808 79.2586 98.2808 77.9086C98.2808 76.5586 97.8898 75.5123 97.1094 74.7656C96.3289 74.0203 95.2348 73.6477 93.8286 73.6477H92.12V82.1695H93.8286C95.2348 82.1695 96.3289 81.7983 97.1094 81.0516Z" fill="black"/>
<path d="M100.991 81.8011C100.365 82.9331 99.4648 83.8162 98.2906 84.4491C97.1164 85.0819 95.7341 85.3983 94.145 85.3983H88.513V70.4836H94.145C95.7481 70.4836 97.1333 70.793 98.3005 71.4117C99.4677 72.0305 100.363 72.9023 100.991 74.0273C101.616 75.1523 101.929 76.4461 101.929 77.9086C101.93 79.3725 101.616 80.6691 100.991 81.8011ZM97.1094 81.0516C97.8898 80.3063 98.2808 79.2586 98.2808 77.9086C98.2808 76.5586 97.8898 75.5123 97.1094 74.7656C96.3289 74.0203 95.2348 73.6477 93.8286 73.6477H92.12V82.1695H93.8286C95.2348 82.1695 96.3289 81.7983 97.1094 81.0516Z" fill="url(#paint8_linear_1446_18941)"/>
</g>
<defs>
<radialGradient id="paint0_radial_1446_18941" cx="0" cy="0" r="1" gradientUnits="userSpaceOnUse" gradientTransform="translate(77.5 60) rotate(90) scale(60 60)">
<stop stop-color="#CAFC01"/>
<stop offset="1" stop-color="#CAFC01" stop-opacity="0"/>
</radialGradient>
<linearGradient id="paint1_linear_1446_18941" x1="77" y1="24.0085" x2="77" y2="185.856" gradientUnits="userSpaceOnUse">
<stop stop-color="#A3A3A3"/>
<stop offset="1" stop-color="white"/>
</linearGradient>
<linearGradient id="paint2_linear_1446_18941" x1="77" y1="24.0085" x2="77" y2="185.856" gradientUnits="userSpaceOnUse">
<stop stop-color="#A3A3A3"/>
<stop offset="1" stop-color="white"/>
</linearGradient>
<linearGradient id="paint3_linear_1446_18941" x1="77" y1="24.0085" x2="77" y2="185.856" gradientUnits="userSpaceOnUse">
<stop stop-color="#A3A3A3"/>
<stop offset="1" stop-color="white"/>
</linearGradient>
<linearGradient id="paint4_linear_1446_18941" x1="77" y1="24.0085" x2="77" y2="185.856" gradientUnits="userSpaceOnUse">
<stop stop-color="#A3A3A3"/>
<stop offset="1" stop-color="white"/>
</linearGradient>
<linearGradient id="paint5_linear_1446_18941" x1="77" y1="24.0085" x2="77" y2="185.856" gradientUnits="userSpaceOnUse">
<stop stop-color="#A3A3A3"/>
<stop offset="1" stop-color="white"/>
</linearGradient>
<linearGradient id="paint6_linear_1446_18941" x1="77" y1="24.0085" x2="77" y2="185.856" gradientUnits="userSpaceOnUse">
<stop stop-color="#A3A3A3"/>
<stop offset="1" stop-color="white"/>
</linearGradient>
<linearGradient id="paint7_linear_1446_18941" x1="77" y1="24.0085" x2="77" y2="185.856" gradientUnits="userSpaceOnUse">
<stop stop-color="#A3A3A3"/>
<stop offset="1" stop-color="white"/>
</linearGradient>
<linearGradient id="paint8_linear_1446_18941" x1="77" y1="24.0085" x2="77" y2="185.856" gradientUnits="userSpaceOnUse">
<stop stop-color="#A3A3A3"/>
<stop offset="1" stop-color="white"/>
</linearGradient>
<clipPath id="clip0_1446_18941">
<rect width="72" height="72" fill="white" transform="translate(41 24)"/>
</clipPath>
</defs>
</svg>
