<svg width="155" height="120" viewBox="0 0 155 120" fill="none" xmlns="http://www.w3.org/2000/svg">
<rect width="155" height="120" rx="16" fill="#101010"/>
<rect width="155" height="120" rx="16" fill="url(#paint0_radial_1446_18947)" fill-opacity="0.15"/>
<rect x="0.5" y="0.5" width="154" height="119" rx="15.5" stroke="white" stroke-opacity="0.3"/>
<g clip-path="url(#clip0_1446_18947)">
<path d="M96.5366 43.7395C95.9375 45.9783 92.1744 44.6958 90.9538 44.3695L92.0169 40.4025C93.2389 40.7316 97.1624 41.4066 96.5366 43.7395ZM109.677 44.6395C107.334 53.3836 98.345 58.5741 89.5995 56.2313C80.8541 53.8885 75.665 44.8997 78.0078 36.1542C80.3506 27.4088 89.3408 22.2197 98.0849 24.5625C106.829 26.9053 112.019 35.8941 109.677 44.6395ZM98.4153 40.6303C99.6022 40.3786 100.506 39.615 100.772 38.0133C101.139 35.8238 99.4883 34.6158 97.2172 33.7875L98.0103 30.8274L96.2089 30.345L95.4369 33.2278C94.963 33.1013 94.4764 32.9803 93.9927 32.8622L94.7703 29.9611L92.9703 29.4788L92.1772 32.4375C91.7835 32.3405 91.3995 32.2463 91.0255 32.145L91.0283 32.1352L88.542 31.4686L88.026 33.3938C88.026 33.3938 89.3633 33.7256 89.3352 33.7439C90.065 33.9394 90.1888 34.4274 90.1606 34.8113L89.2564 38.1835C89.307 38.1975 89.3717 38.2172 89.4434 38.2467C89.383 38.2313 89.3197 38.213 89.2536 38.1961L87.988 42.9197C87.8938 43.1405 87.6603 43.471 87.1513 43.3345C87.1681 43.3613 85.8406 42.983 85.8406 42.983L84.9055 45.0389L87.2497 45.6675C87.687 45.7842 88.1131 45.908 88.5336 46.0233L87.7306 49.0172L89.5306 49.4995L90.3252 46.5366C90.8159 46.68 91.2941 46.8108 91.761 46.936L90.9706 49.8849L92.772 50.3672L93.5722 47.3789C96.6491 48.0174 98.9736 47.8219 99.9988 45.0474C100.828 42.8156 100.024 41.505 98.4153 40.6303ZM97.1975 37.9191C97.767 35.7956 94.4835 35.2627 93.4667 34.9899L92.502 38.587C93.5202 38.8599 96.6519 39.9539 97.1975 37.9191Z" fill="url(#paint1_linear_1446_18947)"/>
<path d="M73.2544 24.0039V56.6978H65.3006V43.0558H52.9073V56.6978H45V24.0039H52.9073V36.6742H65.3006V24.0039H73.2544Z" fill="black"/>
<path d="M73.2544 24.0039V56.6978H65.3006V43.0558H52.9073V56.6978H45V24.0039H52.9073V36.6742H65.3006V24.0039H73.2544Z" fill="url(#paint2_linear_1446_18947)"/>
<path d="M72.353 88.1153C70.9805 90.5973 69.0075 92.5309 66.4341 93.9189C63.8592 95.3068 60.8302 96.0001 57.3469 96.0001H45V63.3062H57.3469C60.8611 63.3062 63.8972 63.984 66.4566 65.3411C69.0145 66.6981 70.9805 68.6092 72.353 71.0757C73.7241 73.5423 74.4103 76.3787 74.4103 79.585C74.4103 82.7898 73.7241 85.6346 72.353 88.1153ZM63.8438 86.4742C65.5552 84.8401 66.4102 82.5437 66.4102 79.5836C66.4102 76.6234 65.5552 74.327 63.8438 72.6929C62.1323 71.0589 59.7347 70.2418 56.6522 70.2418H52.9073V88.9239H56.6536C59.7361 88.9253 62.1323 88.1082 63.8438 86.4742Z" fill="black"/>
<path d="M72.353 88.1153C70.9805 90.5973 69.0075 92.5309 66.4341 93.9189C63.8592 95.3068 60.8302 96.0001 57.3469 96.0001H45V63.3062H57.3469C60.8611 63.3062 63.8972 63.984 66.4566 65.3411C69.0145 66.6981 70.9805 68.6092 72.353 71.0757C73.7241 73.5423 74.4103 76.3787 74.4103 79.585C74.4103 82.7898 73.7241 85.6346 72.353 88.1153ZM63.8438 86.4742C65.5552 84.8401 66.4102 82.5437 66.4102 79.5836C66.4102 76.6234 65.5552 74.327 63.8438 72.6929C62.1323 71.0589 59.7347 70.2418 56.6522 70.2418H52.9073V88.9239H56.6536C59.7361 88.9253 62.1323 88.1082 63.8438 86.4742Z" fill="url(#paint3_linear_1446_18947)"/>
<path d="M88.7344 89.8731H110.048V95.9312H80.827V63.2373H88.7344V89.8731Z" fill="black"/>
<path d="M88.7344 89.8731H110.048V95.9312H80.827V63.2373H88.7344V89.8731Z" fill="url(#paint4_linear_1446_18947)"/>
</g>
<defs>
<radialGradient id="paint0_radial_1446_18947" cx="0" cy="0" r="1" gradientUnits="userSpaceOnUse" gradientTransform="translate(77.5 60) rotate(90) scale(60 60)">
<stop stop-color="#CAFC01"/>
<stop offset="1" stop-color="#CAFC01" stop-opacity="0"/>
</radialGradient>
<linearGradient id="paint1_linear_1446_18947" x1="88.4526" y1="56.6913" x2="88.4526" y2="24.7085" gradientUnits="userSpaceOnUse">
<stop stop-color="#ADDF7C" stop-opacity="0.88"/>
<stop offset="1" stop-color="#BB981C"/>
</linearGradient>
<linearGradient id="paint2_linear_1446_18947" x1="59.1272" y1="24.0078" x2="59.1272" y2="97.4997" gradientUnits="userSpaceOnUse">
<stop stop-color="#A3A3A3"/>
<stop offset="1" stop-color="white"/>
</linearGradient>
<linearGradient id="paint3_linear_1446_18947" x1="95.4373" y1="24.0001" x2="95.4373" y2="95.9312" gradientUnits="userSpaceOnUse">
<stop stop-color="#A3A3A3"/>
<stop offset="1" stop-color="white"/>
</linearGradient>
<linearGradient id="paint4_linear_1446_18947" x1="95.4373" y1="24.0001" x2="95.4373" y2="95.9312" gradientUnits="userSpaceOnUse">
<stop stop-color="#A3A3A3"/>
<stop offset="1" stop-color="white"/>
</linearGradient>
<clipPath id="clip0_1446_18947">
<rect width="65.2373" height="72" fill="white" transform="translate(45 24)"/>
</clipPath>
</defs>
</svg>
