<svg width="155" height="120" viewBox="0 0 155 120" fill="none" xmlns="http://www.w3.org/2000/svg">
<rect width="155" height="120" rx="16" fill="#101010"/>
<rect width="155" height="120" rx="16" fill="url(#paint0_radial_1446_19004)" fill-opacity="0.15"/>
<rect x="0.5" y="0.5" width="154" height="119" rx="15.5" stroke="white" stroke-opacity="0.3"/>
<g clip-path="url(#clip0_1446_19004)">
<path d="M94.0422 58.5231C93.8397 58.5231 93.6386 58.4711 93.4572 58.367C93.2604 58.2531 88.5944 55.5433 83.8596 51.4609C81.0541 49.0408 78.814 46.6403 77.2024 44.327C75.1169 41.3331 74.0693 38.4531 74.0861 35.7672C74.1058 32.6425 75.2252 29.7034 77.2375 27.4914C79.285 25.2428 82.016 24.0039 84.9297 24.0039C88.6633 24.0039 92.0763 26.095 94.0422 29.4081C96.0068 26.095 99.4211 24.0039 103.155 24.0039C105.907 24.0039 108.534 25.1219 110.549 27.1497C112.761 29.3758 114.018 32.5216 113.998 35.7812C113.981 38.4616 112.913 41.3373 110.823 44.327C109.207 46.6389 106.97 49.038 104.176 51.4581C99.4591 55.5405 94.8255 58.2503 94.63 58.3642C94.4486 58.4711 94.2461 58.5231 94.0422 58.5231Z" fill="url(#paint1_linear_1446_19004)"/>
<path d="M57.3492 29.76V52.1841H63.1373C64.5169 52.1841 65.4998 52.4498 66.0877 52.9814C66.6755 53.513 66.968 54.2077 66.968 55.0641C66.968 55.9022 66.6741 56.5884 66.0877 57.1186C65.5012 57.6488 64.5169 57.9159 63.1373 57.9159H45.8306C44.4511 57.9159 43.4681 57.6502 42.8803 57.1186C42.2925 56.587 42 55.8923 42 55.0345C42 54.1964 42.2939 53.5102 42.8803 52.98C43.4667 52.4498 44.4497 52.1827 45.8306 52.1827H51.6188V29.76H45.8306C44.4511 29.76 43.4681 29.4942 42.8803 28.9627C42.2939 28.4311 42 27.7378 42 26.88C42 26.0222 42.2939 25.3289 42.8803 24.7973C43.4667 24.2658 44.4511 24 45.8306 24L63.1373 24.0281C64.5169 24.0281 65.4998 24.2897 66.0877 24.8114C66.6755 25.3331 66.968 26.0236 66.968 26.88C66.968 27.7378 66.6741 28.4311 66.0877 28.9627C65.4998 29.4942 64.5169 29.76 63.1373 29.76H57.3492Z" fill="url(#paint2_linear_1446_19004)"/>
<path d="M52.4569 72.9332V90.268H54.5255C55.905 90.268 56.888 90.5338 57.4758 91.0654C58.0636 91.597 58.3561 92.2916 58.3561 93.148C58.3561 93.9862 58.0622 94.6724 57.4758 95.2026C56.888 95.7341 55.905 95.9999 54.5255 95.9999H47.0048C45.6253 95.9999 44.6423 95.7341 44.0545 95.2026C43.4667 94.671 43.1742 93.9777 43.1742 93.1199C43.1742 92.3001 43.4625 91.6195 44.0405 91.0795C44.6184 90.5395 45.5128 90.268 46.725 90.268V67.844H45.8306C44.4511 67.844 43.4681 67.5782 42.8803 67.0466C42.2925 66.5151 42 65.8218 42 64.9654C42 64.1076 42.2939 63.4143 42.8803 62.8827C43.4667 62.3512 44.4497 62.0854 45.8306 62.0854L52.4569 62.1135L67.1072 85.0959V67.844H65.0386C63.6591 67.844 62.6761 67.5782 62.0883 67.0466C61.5005 66.5151 61.208 65.8218 61.208 64.964C61.208 64.1062 61.5019 63.4129 62.0883 62.8813C62.6747 62.3498 63.6591 62.084 65.0386 62.084L72.5592 62.1121C73.9388 62.1121 74.9217 62.3737 75.5081 62.8954C76.0959 63.4171 76.3884 64.1076 76.3884 64.964C76.3884 65.8021 76.0988 66.4926 75.5222 67.0326C74.9442 67.574 74.0583 67.844 72.8658 67.844V95.9999H67.1902L52.4569 72.9332Z" fill="url(#paint3_linear_1446_19004)"/>
<path d="M100.805 81.7687V90.268H104.664C106.044 90.268 107.027 90.5338 107.615 91.0654C108.202 91.597 108.495 92.2916 108.495 93.148C108.495 93.9862 108.201 94.6724 107.615 95.2026C107.028 95.7327 106.042 95.9999 104.663 95.9999H91.2148C89.8536 95.9999 88.8805 95.7341 88.2927 95.2026C87.7048 94.671 87.4123 93.9777 87.4123 93.1199C87.4123 92.2818 87.7062 91.5955 88.2927 91.0654C88.8791 90.5352 89.8536 90.268 91.2148 90.268H95.0736V81.7687L85.5955 67.844C84.3284 67.844 83.4003 67.574 82.8139 67.0326C82.2261 66.4926 81.9336 65.8021 81.9336 64.964C81.9336 64.1062 82.2275 63.4129 82.8139 62.8813C83.4003 62.3498 84.3847 62.084 85.7642 62.084L90.9645 62.1121C92.3441 62.1121 93.327 62.3737 93.9148 62.8954C94.5027 63.4171 94.7952 64.1076 94.7952 64.964C94.7952 66.2507 94.04 67.2098 92.5311 67.844L97.955 75.8399L103.268 67.844C102.43 67.5276 101.832 67.1268 101.479 66.6416C101.125 66.1565 100.948 65.5982 100.948 64.964C100.948 64.1062 101.241 63.4171 101.828 62.8954C102.416 62.3737 103.399 62.1037 104.778 62.084L110.174 62.1121C111.553 62.1121 112.536 62.3737 113.124 62.8954C113.712 63.4171 114.005 64.1076 114.005 64.964C114.005 65.8218 113.706 66.5151 113.11 67.0466C112.514 67.5782 111.545 67.844 110.202 67.844L100.805 81.7687Z" fill="url(#paint4_linear_1446_19004)"/>
</g>
<defs>
<radialGradient id="paint0_radial_1446_19004" cx="0" cy="0" r="1" gradientUnits="userSpaceOnUse" gradientTransform="translate(77.5 60) rotate(90) scale(60 60)">
<stop stop-color="#CAFC01"/>
<stop offset="1" stop-color="#CAFC01" stop-opacity="0"/>
</radialGradient>
<linearGradient id="paint1_linear_1446_19004" x1="91.9483" y1="58.1997" x2="91.9483" y2="23.9997" gradientUnits="userSpaceOnUse">
<stop stop-color="#ADDF7C" stop-opacity="0.88"/>
<stop offset="1" stop-color="#BB981C"/>
</linearGradient>
<linearGradient id="paint2_linear_1446_19004" x1="54.484" y1="24" x2="54.484" y2="96" gradientUnits="userSpaceOnUse">
<stop stop-color="#A3A3A3"/>
<stop offset="1" stop-color="white"/>
</linearGradient>
<linearGradient id="paint3_linear_1446_19004" x1="59.1942" y1="24.4499" x2="59.1942" y2="95.9999" gradientUnits="userSpaceOnUse">
<stop stop-color="#A3A3A3"/>
<stop offset="1" stop-color="white"/>
</linearGradient>
<linearGradient id="paint4_linear_1446_19004" x1="97.9691" y1="24.4499" x2="97.9691" y2="95.9999" gradientUnits="userSpaceOnUse">
<stop stop-color="#A3A3A3"/>
<stop offset="1" stop-color="white"/>
</linearGradient>
<clipPath id="clip0_1446_19004">
<rect width="72" height="72" fill="white" transform="translate(42 24)"/>
</clipPath>
</defs>
</svg>
