<svg width="155" height="120" viewBox="0 0 155 120" fill="none" xmlns="http://www.w3.org/2000/svg">
<rect width="155" height="120" rx="16" fill="#101010"/>
<rect width="155" height="120" rx="16" fill="url(#paint0_radial_1451_19025)" fill-opacity="0.15"/>
<rect x="0.5" y="0.5" width="154" height="119" rx="15.5" stroke="white" stroke-opacity="0.3"/>
<g clip-path="url(#clip0_1451_19025)">
<path d="M93.9834 79.4502C97.1362 84.043 99.2048 89.7791 100.001 96.0003H114C109.362 85.8992 100.598 78.0875 89.8673 74.7195C91.3481 76.0428 92.7305 77.6234 93.9834 79.4502Z" fill="url(#paint1_linear_1451_19025)"/>
<path d="M58.8328 96.0003H76.5938V72.9336C76.1325 72.9491 75.6727 72.9744 75.2156 73.0067C71.1375 73.8772 67.3477 76.6545 64.3355 81.042C61.4906 85.182 59.6034 90.3584 58.8328 96.0003Z" fill="url(#paint2_linear_1451_19025)"/>
<path d="M80.7844 73.0067C80.3273 72.9744 79.8675 72.9505 79.4062 72.9336V96.0003H97.1672C96.3966 90.3584 94.5094 85.182 91.6659 81.042C88.6523 76.6545 84.8625 73.8772 80.7844 73.0067Z" fill="url(#paint3_linear_1451_19025)"/>
<path d="M62.0166 79.4502C63.2709 77.6249 64.6519 76.0442 66.1327 74.7209C55.4016 78.0875 46.6378 85.8992 42 96.0003H55.9992C56.7952 89.7777 58.8623 84.0416 62.0166 79.4502Z" fill="url(#paint4_linear_1451_19025)"/>
<path d="M81.166 31.5672C81.1767 31.5079 81.201 31.4534 81.201 31.3901C81.201 31.1179 81.1017 30.8705 80.9352 30.6844L79.0823 26.9176V24H77.0055V26.9176L75.0387 30.919C75.0349 30.9279 75.0368 30.9378 75.0329 30.9467C74.9706 31.0813 74.9287 31.2317 74.9287 31.3921C74.9287 34.8164 74.6853 37.9607 74.2725 40.8932H81.8144C81.4113 38.0112 81.1747 34.9223 81.166 31.5672Z" fill="url(#paint5_linear_1451_19025)"/>
<path d="M96.543 73L95.3386 71.3086C93.3406 68.5097 91.1986 65.4644 89.188 62.0143H91.5462V59.8677H64.5408V62.0143H66.899C64.8903 65.4664 62.7463 68.5097 60.7484 71.3086L59.543 73H69.7352V72.5606C69.7352 67.903 73.4614 64.1155 78.0435 64.1155C82.6255 64.1155 86.3517 67.903 86.3517 72.5606V73H96.543Z" fill="url(#paint6_linear_1451_19025)"/>
<path d="M74.181 57.7814L76.0212 52.1688C76.1623 51.7383 76.5596 51.4463 77.0055 51.4463H79.0823C79.5293 51.4463 79.9255 51.7373 80.0667 52.1688L81.9069 57.7804H86.9028C85.1336 54.1264 83.643 49.945 82.6089 45.1479H84.601V43.0022H71.4878V45.1489H73.477C72.4449 49.946 70.9523 54.1274 69.1832 57.7814H74.181Z" fill="url(#paint7_linear_1451_19025)"/>
</g>
<defs>
<radialGradient id="paint0_radial_1451_19025" cx="0" cy="0" r="1" gradientUnits="userSpaceOnUse" gradientTransform="translate(77.5 60) rotate(90) scale(60 60)">
<stop stop-color="#CAFC01"/>
<stop offset="1" stop-color="#CAFC01" stop-opacity="0"/>
</radialGradient>
<linearGradient id="paint1_linear_1451_19025" x1="52.8003" y1="95.8009" x2="52.8003" y2="74.7183" gradientUnits="userSpaceOnUse">
<stop stop-color="#ADDF7C" stop-opacity="0.88"/>
<stop offset="1" stop-color="#BB981C"/>
</linearGradient>
<linearGradient id="paint2_linear_1451_19025" x1="52.8003" y1="95.8009" x2="52.8003" y2="74.7183" gradientUnits="userSpaceOnUse">
<stop stop-color="#ADDF7C" stop-opacity="0.88"/>
<stop offset="1" stop-color="#BB981C"/>
</linearGradient>
<linearGradient id="paint3_linear_1451_19025" x1="52.8003" y1="95.8009" x2="52.8003" y2="74.7183" gradientUnits="userSpaceOnUse">
<stop stop-color="#ADDF7C" stop-opacity="0.88"/>
<stop offset="1" stop-color="#BB981C"/>
</linearGradient>
<linearGradient id="paint4_linear_1451_19025" x1="52.8003" y1="95.8009" x2="52.8003" y2="74.7183" gradientUnits="userSpaceOnUse">
<stop stop-color="#ADDF7C" stop-opacity="0.88"/>
<stop offset="1" stop-color="#BB981C"/>
</linearGradient>
<linearGradient id="paint5_linear_1451_19025" x1="78.043" y1="24" x2="78.043" y2="72.9202" gradientUnits="userSpaceOnUse">
<stop stop-color="#A3A3A3"/>
<stop offset="1" stop-color="white"/>
</linearGradient>
<linearGradient id="paint6_linear_1451_19025" x1="78.043" y1="24" x2="78.043" y2="72.9202" gradientUnits="userSpaceOnUse">
<stop stop-color="#A3A3A3"/>
<stop offset="1" stop-color="white"/>
</linearGradient>
<linearGradient id="paint7_linear_1451_19025" x1="78.043" y1="24" x2="78.043" y2="72.9202" gradientUnits="userSpaceOnUse">
<stop stop-color="#A3A3A3"/>
<stop offset="1" stop-color="white"/>
</linearGradient>
<clipPath id="clip0_1451_19025">
<rect width="72" height="72" fill="white" transform="translate(42 24)"/>
</clipPath>
</defs>
</svg>
