<svg width="155" height="120" viewBox="0 0 155 120" fill="none" xmlns="http://www.w3.org/2000/svg">
<rect width="155" height="120" rx="16" fill="#101010"/>
<rect width="155" height="120" rx="16" fill="url(#paint0_radial_1446_18998)" fill-opacity="0.15"/>
<rect x="0.5" y="0.5" width="154" height="119" rx="15.5" stroke="white" stroke-opacity="0.3"/>
<g clip-path="url(#clip0_1446_18998)">
<path d="M97.2742 24H58.7261L47.5703 39.1383L78.0002 72.0783L108.43 39.1383L97.2742 24Z" fill="url(#paint1_linear_1446_18998)"/>
<path fill-rule="evenodd" clip-rule="evenodd" d="M92.5719 83.8292L91.6016 83.9192L91.7872 85.9217L92.7575 85.8317C93.4663 85.7656 93.7897 85.4 93.7278 84.732C93.6659 84.0641 93.2806 83.7631 92.5719 83.8292Z" fill="black"/>
<path fill-rule="evenodd" clip-rule="evenodd" d="M92.5719 83.8292L91.6016 83.9192L91.7872 85.9217L92.7575 85.8317C93.4663 85.7656 93.7897 85.4 93.7278 84.732C93.6659 84.0641 93.2806 83.7631 92.5719 83.8292Z" fill="url(#paint2_linear_1446_18998)"/>
<path fill-rule="evenodd" clip-rule="evenodd" d="M108.409 84.5816C108.136 84.2484 108.037 83.8054 108.142 83.3863L110.355 74.5059C98.2345 76.8768 87.9956 77.9259 78.0084 77.9821C67.5698 78.0412 57.4041 77.0005 45.6534 74.5382L47.8584 83.3849C47.9625 83.8026 47.8641 84.2455 47.5912 84.5802L42 91.4441C52.5581 94.8009 65.9555 96.0341 77.9972 95.999C89.7802 95.9652 103.412 94.7938 114 91.4427L108.409 84.5816ZM65.9569 92.3301L61.5328 91.9532L58.7934 80.7285L62.4314 81.0379L64.0416 88.7357L66.9159 81.4204L70.5539 81.7298L65.9569 92.3301ZM77.2139 92.7154L77.1239 81.7635L80.558 81.7354L80.648 92.6873L77.2139 92.7154ZM96.8902 86.3268C96.623 86.916 96.1955 87.404 95.6034 87.7893C95.0128 88.176 94.2759 88.4095 93.3928 88.491L92.0372 88.6162L92.3578 92.0812L88.9378 92.3976L87.9295 81.4921L92.7052 81.0505C94.0397 80.9268 95.0958 81.1715 95.872 81.7832C96.6483 82.3949 97.0898 83.271 97.1953 84.4101C97.2572 85.0991 97.1559 85.7376 96.8902 86.3268Z" fill="black"/>
<path fill-rule="evenodd" clip-rule="evenodd" d="M108.409 84.5816C108.136 84.2484 108.037 83.8054 108.142 83.3863L110.355 74.5059C98.2345 76.8768 87.9956 77.9259 78.0084 77.9821C67.5698 78.0412 57.4041 77.0005 45.6534 74.5382L47.8584 83.3849C47.9625 83.8026 47.8641 84.2455 47.5912 84.5802L42 91.4441C52.5581 94.8009 65.9555 96.0341 77.9972 95.999C89.7802 95.9652 103.412 94.7938 114 91.4427L108.409 84.5816ZM65.9569 92.3301L61.5328 91.9532L58.7934 80.7285L62.4314 81.0379L64.0416 88.7357L66.9159 81.4204L70.5539 81.7298L65.9569 92.3301ZM77.2139 92.7154L77.1239 81.7635L80.558 81.7354L80.648 92.6873L77.2139 92.7154ZM96.8902 86.3268C96.623 86.916 96.1955 87.404 95.6034 87.7893C95.0128 88.176 94.2759 88.4095 93.3928 88.491L92.0372 88.6162L92.3578 92.0812L88.9378 92.3976L87.9295 81.4921L92.7052 81.0505C94.0397 80.9268 95.0958 81.1715 95.872 81.7832C96.6483 82.3949 97.0898 83.271 97.1953 84.4101C97.2572 85.0991 97.1559 85.7376 96.8902 86.3268Z" fill="url(#paint3_linear_1446_18998)"/>
</g>
<defs>
<radialGradient id="paint0_radial_1446_18998" cx="0" cy="0" r="1" gradientUnits="userSpaceOnUse" gradientTransform="translate(77.5 60) rotate(90) scale(60 60)">
<stop stop-color="#CAFC01"/>
<stop offset="1" stop-color="#CAFC01" stop-opacity="0"/>
</radialGradient>
<linearGradient id="paint1_linear_1446_18998" x1="78.0002" y1="24" x2="78.0002" y2="72" gradientUnits="userSpaceOnUse">
<stop stop-color="#A3A3A3"/>
<stop offset="1" stop-color="white"/>
</linearGradient>
<linearGradient id="paint2_linear_1446_18998" x1="93.7204" y1="85.902" x2="91.6164" y2="85.902" gradientUnits="userSpaceOnUse">
<stop stop-color="#ADDF7C" stop-opacity="0.88"/>
<stop offset="1" stop-color="#BB981C"/>
</linearGradient>
<linearGradient id="paint3_linear_1446_18998" x1="113.5" y1="95.7983" x2="42.5" y2="95.7983" gradientUnits="userSpaceOnUse">
<stop stop-color="#ADDF7C" stop-opacity="0.88"/>
<stop offset="1" stop-color="#BB981C"/>
</linearGradient>
<clipPath id="clip0_1446_18998">
<rect width="72" height="72" fill="white" transform="translate(42 24)"/>
</clipPath>
</defs>
</svg>
