<svg width="155" height="120" viewBox="0 0 155 120" fill="none" xmlns="http://www.w3.org/2000/svg">
<rect width="155" height="120" rx="16" fill="#101010"/>
<rect width="155" height="120" rx="16" fill="url(#paint0_radial_1446_18971)" fill-opacity="0.15"/>
<rect x="0.5" y="0.5" width="154" height="119" rx="15.5" stroke="white" stroke-opacity="0.3"/>
<g clip-path="url(#clip0_1446_18971)">
<path d="M107.088 95.2005V86.3589C107.174 83.0109 105.713 79.8357 103.049 77.7693C95.3232 71.7573 87.504 67.8117 85.7904 66.9477C85.6176 66.8613 85.4448 66.6885 85.4448 66.4293C85.4448 65.5725 85.4448 63.2541 85.4448 60.9357C86.3016 59.2149 86.7336 57.4149 87.0792 55.7805C87.8496 56.2989 89.052 56.0397 90.4272 51.2301C91.5432 47.3637 90.8592 45.9885 89.9088 45.7365C92.9976 30.8829 85.956 30.3645 85.956 30.3645C85.956 30.3645 84.84 28.3053 82.0032 26.7573C80.1168 25.6413 77.5392 24.7845 74.0184 25.0365C72.9024 25.1229 71.8728 25.2957 70.8432 25.6341C69.5544 26.0661 68.4384 26.6637 67.3224 27.4341C66.0336 28.2909 64.8312 29.2341 63.7152 30.4365C61.9944 32.1573 60.4536 34.4757 59.8488 37.2189C59.2512 39.6237 59.2512 42.2013 60.1944 44.7789C58.9056 44.6925 57.444 45.3765 58.8192 50.3589C59.8488 54.0525 60.792 54.9957 61.5696 55.0821C61.9152 57.1413 62.5128 59.4597 63.8016 61.6053V66.4149C63.8016 66.6741 63.7152 66.8469 63.456 66.9333C61.7352 67.7901 53.9232 71.7429 46.1976 77.7549C43.548 79.8357 42 83.0109 42 86.3589V95.2005H107.088Z" fill="url(#paint1_linear_1446_18971)"/>
<path d="M113.999 52.7197H96.7188V57.0397H113.999V52.7197Z" fill="url(#paint2_linear_1446_18971)"/>
<path d="M109.679 61.3597H96.7188V65.6797H109.679V61.3597Z" fill="url(#paint3_linear_1446_18971)"/>
</g>
<defs>
<radialGradient id="paint0_radial_1446_18971" cx="0" cy="0" r="1" gradientUnits="userSpaceOnUse" gradientTransform="translate(77.5 60) rotate(90) scale(60 60)">
<stop stop-color="#CAFC01"/>
<stop offset="1" stop-color="#CAFC01" stop-opacity="0"/>
</radialGradient>
<linearGradient id="paint1_linear_1446_18971" x1="74.5458" y1="25.0005" x2="74.5458" y2="95.2005" gradientUnits="userSpaceOnUse">
<stop stop-color="#A3A3A3"/>
<stop offset="1" stop-color="white"/>
</linearGradient>
<linearGradient id="paint2_linear_1446_18971" x1="102.519" y1="65.6392" x2="102.519" y2="52.9997" gradientUnits="userSpaceOnUse">
<stop stop-color="#ADDF7C" stop-opacity="0.88"/>
<stop offset="1" stop-color="#BB981C"/>
</linearGradient>
<linearGradient id="paint3_linear_1446_18971" x1="102.519" y1="65.6392" x2="102.519" y2="52.9997" gradientUnits="userSpaceOnUse">
<stop stop-color="#ADDF7C" stop-opacity="0.88"/>
<stop offset="1" stop-color="#BB981C"/>
</linearGradient>
<clipPath id="clip0_1446_18971">
<rect width="72" height="70" fill="white" transform="translate(42 25)"/>
</clipPath>
</defs>
</svg>
