<svg width="155" height="120" viewBox="0 0 155 120" fill="none" xmlns="http://www.w3.org/2000/svg">
<rect width="155" height="120" rx="16" fill="#101010"/>
<rect width="155" height="120" rx="16" fill="url(#paint0_radial_1446_18966)" fill-opacity="0.15"/>
<rect x="0.5" y="0.5" width="154" height="119" rx="15.5" stroke="white" stroke-opacity="0.3"/>
<g clip-path="url(#clip0_1446_18966)">
<path d="M106.711 24H86.312C82.2873 24 79.0234 27.2625 79.0234 31.2886C79.0234 35.3133 82.2859 38.5772 86.312 38.5772H106.711C110.736 38.5772 114 35.3147 114 31.2886C114 27.2625 110.737 24 106.711 24ZM88.6464 34.6777H86.4062V32.5134H88.6464V34.6777ZM94.9492 34.6777H89.3172V32.9691L92.3547 29.4127H89.3678V27.6155H94.8227V29.3241L91.6839 32.8678H94.9492V34.6777ZM100.569 29.8556H99.9484C99.3747 29.8556 98.9303 29.978 98.6139 30.2227C98.2975 30.4673 98.1386 30.8808 98.1386 31.463V34.6777H95.9744V27.6155H98.1386V28.9444C98.4086 28.5141 98.7559 28.1723 99.182 27.9192C99.6081 27.6661 100.069 27.5395 100.567 27.5395V29.8556H100.569ZM103.682 32.4558C103.927 32.7553 104.239 32.9058 104.619 32.9058C104.939 32.9058 105.205 32.8214 105.416 32.6527C105.627 32.4839 105.766 32.2477 105.834 31.9439H108.124C107.964 32.8214 107.576 33.5119 106.96 34.0139C106.344 34.5159 105.58 34.7662 104.669 34.7662C103.977 34.7662 103.363 34.62 102.828 34.3303C102.293 34.0392 101.874 33.6202 101.568 33.0703C101.265 32.5219 101.113 31.8806 101.113 31.1466C101.113 30.4041 101.262 29.7614 101.563 29.2172C101.862 28.673 102.281 28.2553 102.823 27.9642C103.363 27.6731 103.979 27.5283 104.671 27.5283C105.582 27.5283 106.345 27.78 106.961 28.2806C107.577 28.7827 107.965 29.4731 108.126 30.3492H105.835C105.767 30.0455 105.628 29.8092 105.417 29.6405C105.206 29.4717 104.941 29.3873 104.62 29.3873C104.24 29.3873 103.928 29.5378 103.683 29.8373C103.439 30.1369 103.316 30.5742 103.316 31.1466C103.315 31.7203 103.437 32.1562 103.682 32.4558Z" fill="url(#paint1_linear_1446_18966)"/>
<path d="M66.0766 81.4229H49.6206C45.5959 81.4229 42.332 84.6854 42.332 88.7114C42.332 92.7361 45.5945 96 49.6206 96H66.0766C70.1013 96 73.3652 92.7375 73.3652 88.7114C73.3652 84.6868 70.1013 81.4229 66.0766 81.4229ZM51.5711 92.1005H49.3309V89.9363H51.5711V92.1005ZM54.8997 89.88C55.1444 90.1796 55.4566 90.33 55.8363 90.33C56.1569 90.33 56.4227 90.2457 56.6336 90.0769C56.8445 89.9082 56.9837 89.6719 57.0512 89.3682H59.342C59.1817 90.2457 58.7936 90.9361 58.1777 91.4382C57.5617 91.9402 56.7981 92.1905 55.8869 92.1905C55.195 92.1905 54.5805 92.0443 54.0447 91.7546C53.5089 91.4635 53.0898 91.0444 52.7847 90.4946C52.4809 89.9461 52.3291 89.3049 52.3291 88.5708C52.3291 87.8283 52.4781 87.1857 52.7777 86.6414C53.0772 86.0972 53.4977 85.6796 54.0377 85.3885C54.5777 85.0974 55.1936 84.9525 55.8855 84.9525C56.7967 84.9525 57.5603 85.2043 58.1762 85.7049C58.7922 86.2069 59.1803 86.8974 59.3406 87.7735H57.0498C56.9823 87.4697 56.8431 87.2335 56.6322 87.0647C56.4213 86.896 56.1555 86.8116 55.8348 86.8116C55.4552 86.8116 55.143 86.9621 54.8983 87.2616C54.6536 87.5611 54.5312 87.9985 54.5312 88.5708C54.5327 89.1432 54.655 89.5805 54.8997 89.88ZM65.6448 92.1005H60.0128V90.3919L63.0503 86.8355H60.0634V85.0383H65.5183V86.7469L62.3795 90.2907H65.6448V92.1005Z" fill="url(#paint2_linear_1446_18966)"/>
<path d="M100.012 46.5957H55.988C48.262 46.5957 42 52.8577 42 60.5837C42 68.3096 48.262 74.5716 55.988 74.5716H100.012C107.738 74.5716 114 68.3096 114 60.5837C114 52.8577 107.738 46.5957 100.012 46.5957ZM59.82 67.1902H55.6645V63.1754H59.8214V67.1902H59.82ZM71.5144 67.1902H61.0645V64.0205L66.7008 57.4224H61.1588V54.0882H71.2795V57.2579L65.4563 63.8335H71.5144V67.1902ZM86.6372 67.1902H82.6223V60.0521C82.6223 59.176 82.3917 58.4898 81.9291 57.9976C81.4664 57.504 80.8519 57.2579 80.0855 57.2579C79.2712 57.2579 78.6258 57.5166 78.1477 58.0327C77.6695 58.5488 77.4319 59.2857 77.4319 60.2405V67.1916H73.4156V54.0882H77.4305V56.483C77.8059 55.6998 78.3656 55.0824 79.1095 54.6282C79.8534 54.174 80.7253 53.9476 81.728 53.9476C83.2313 53.9476 84.4252 54.4482 85.3097 55.4509C86.1942 56.4535 86.6358 57.8302 86.6358 59.5838V67.1902H86.6372ZM99.4819 65.4999C99.0741 66.0793 98.4877 66.5335 97.7212 66.8626C96.9534 67.1916 96.0464 67.3562 94.9973 67.3562C93.2283 67.3562 91.8122 66.9652 90.7477 66.182C89.6831 65.3987 89.0334 64.2793 88.7986 62.8238H92.6728C92.7347 63.3877 92.9737 63.818 93.3886 64.1148C93.8034 64.4129 94.3392 64.5605 94.9973 64.5605C95.4516 64.5605 95.7961 64.4551 96.0309 64.2441C96.2658 64.0332 96.3825 63.7548 96.3825 63.4102C96.3825 62.956 96.1673 62.6312 95.737 62.4357C95.3067 62.2402 94.6064 62.0335 93.6347 61.8141C92.6644 61.6102 91.8656 61.3909 91.2398 61.156C90.6141 60.9212 90.0741 60.5415 89.6198 60.017C89.1656 59.4924 88.9392 58.7766 88.9392 57.8682C88.9392 56.694 89.385 55.7434 90.278 55.0149C91.1709 54.2865 92.4309 53.9237 94.0594 53.9237C95.7188 53.9237 97.0448 54.3385 98.0391 55.1682C99.0333 55.9979 99.6548 57.0934 99.9066 58.456H96.1491C96.0394 57.9245 95.7933 57.5054 95.4094 57.2002C95.0255 56.8951 94.5445 56.7418 93.9652 56.7418C93.5109 56.7418 93.1664 56.8402 92.9316 57.0357C92.6967 57.2312 92.58 57.5096 92.58 57.8696C92.58 58.2774 92.7952 58.5826 93.2255 58.7851C93.6558 58.989 94.3322 59.1929 95.2561 59.3954C96.2573 59.6302 97.08 59.8693 97.7212 60.1112C98.3625 60.3545 98.9194 60.7496 99.3891 61.2966C99.8587 61.8451 100.094 62.5806 100.094 63.5045C100.092 64.2554 99.8883 64.9205 99.4819 65.4999Z" fill="url(#paint3_linear_1446_18966)"/>
</g>
<defs>
<radialGradient id="paint0_radial_1446_18966" cx="0" cy="0" r="1" gradientUnits="userSpaceOnUse" gradientTransform="translate(77.5 60) rotate(90) scale(60 60)">
<stop stop-color="#CAFC01"/>
<stop offset="1" stop-color="#CAFC01" stop-opacity="0"/>
</radialGradient>
<linearGradient id="paint1_linear_1446_18966" x1="96.5116" y1="24" x2="96.5116" y2="96" gradientUnits="userSpaceOnUse">
<stop stop-color="#A3A3A3"/>
<stop offset="1" stop-color="white"/>
</linearGradient>
<linearGradient id="paint2_linear_1446_18966" x1="57.8486" y1="25" x2="57.8486" y2="95.9763" gradientUnits="userSpaceOnUse">
<stop stop-color="#A3A3A3"/>
<stop offset="1" stop-color="white"/>
</linearGradient>
<linearGradient id="paint3_linear_1446_18966" x1="74.2227" y1="74.3095" x2="74.2227" y2="46.5923" gradientUnits="userSpaceOnUse">
<stop stop-color="#ADDF7C" stop-opacity="0.88"/>
<stop offset="1" stop-color="#BB981C"/>
</linearGradient>
<clipPath id="clip0_1446_18966">
<rect width="72" height="72" fill="white" transform="translate(42 24)"/>
</clipPath>
</defs>
</svg>
