<svg width="155" height="120" viewBox="0 0 155 120" fill="none" xmlns="http://www.w3.org/2000/svg">
<rect width="155" height="120" rx="16" fill="#101010"/>
<rect width="155" height="120" rx="16" fill="url(#paint0_radial_1446_18984)" fill-opacity="0.15"/>
<rect x="0.5" y="0.5" width="154" height="119" rx="15.5" stroke="white" stroke-opacity="0.3"/>
<g clip-path="url(#clip0_1446_18984)">
<path d="M111.365 51.8175C112.27 51.8175 113.002 51.0857 113.002 50.1806C113.002 49.2754 112.268 48.5452 111.365 48.5452H106.456V41.9992H111.365C112.27 41.9992 113.002 41.2674 113.002 40.3623C113.002 39.4572 112.268 38.727 111.365 38.727H106.456V37.0901C106.456 33.4803 103.519 30.5441 99.9095 30.5441H98.2726V25.6349C98.2726 24.7298 97.5409 23.998 96.6357 23.998C95.7306 23.998 95.0004 24.7313 95.0004 25.6365V30.5456H88.4544V25.6365C88.4544 24.7313 87.7226 23.9996 86.8175 23.9996C85.9124 23.9996 85.1821 24.7313 85.1821 25.6365V30.5456H78.6361V25.6365C78.6361 24.7313 77.9044 23.9996 76.9992 23.9996C76.0941 23.9996 75.3639 24.7313 75.3639 25.6365V30.5456H68.8179V25.6365C68.8179 24.7313 68.0861 23.9996 67.181 23.9996C66.2759 23.9996 65.5456 24.7313 65.5456 25.6365V30.5456H58.9996V25.6365C58.9996 24.7313 58.2679 23.9996 57.3627 23.9996C56.4576 23.9996 55.7274 24.7313 55.7274 25.6365V30.5456H54.0905C50.4807 30.5456 47.5445 33.4819 47.5445 37.0916V38.727H42.6354C41.7318 38.727 41 39.4587 41 40.3638C41 41.269 41.7318 42.0007 42.6369 42.0007H47.546V48.5452H42.6369C41.7318 48.5452 41 49.277 41 50.1821C41 51.0872 41.7318 51.819 42.6369 51.819H47.546V58.3635H42.6369C41.7318 58.3635 41 59.0952 41 60.0004C41 60.9055 41.7318 61.6372 42.6369 61.6372H47.546V68.1817H42.6369C41.7318 68.1817 41 68.9135 41 69.8186C41 70.7237 41.7318 71.4555 42.6369 71.4555H47.546V78H42.6369C41.7318 78 41 78.7317 41 79.6369C41 80.542 41.7318 81.2737 42.6369 81.2737H47.546V82.9091C47.546 86.5188 50.4823 89.4551 54.092 89.4551H55.7274V94.3642C55.7274 95.2694 56.4591 96.0011 57.3643 96.0011C58.2694 96.0011 59.0012 95.2694 59.0012 94.3642V89.4551H65.5456V94.3642C65.5456 95.2694 66.2774 96.0011 67.1825 96.0011C68.0876 96.0011 68.8194 95.2694 68.8194 94.3642V89.4551H75.3639V94.3642C75.3639 95.2694 76.0956 96.0011 77.0008 96.0011C77.9059 96.0011 78.6377 95.2694 78.6377 94.3642V89.4551H85.1821V94.3642C85.1821 95.2694 85.9139 96.0011 86.819 96.0011C87.7241 96.0011 88.4559 95.2694 88.4559 94.3642V89.4551H95.0004V94.3642C95.0004 95.2694 95.7322 96.0011 96.6373 96.0011C97.5424 96.0011 98.2742 95.2694 98.2742 94.3642V89.4551H99.9095C103.519 89.4551 106.456 86.5188 106.456 82.9091V81.2722H111.365C112.27 81.2722 113.002 80.5404 113.002 79.6353C113.002 78.7302 112.268 78 111.365 78H106.456V71.454H111.365C112.27 71.454 113.002 70.7222 113.002 69.8171C113.002 68.912 112.268 68.1817 111.365 68.1817H106.456V61.6357H111.365C112.27 61.6357 113.002 60.9039 113.002 59.9988C113.002 59.0937 112.268 58.3635 111.365 58.3635H106.456V51.8175H111.365ZM99.9095 81.2722C99.9095 82.1773 99.1777 82.9091 98.2726 82.9091H55.7274C54.8223 82.9091 54.0905 82.1773 54.0905 81.2722V38.727C54.0905 37.8218 54.8223 37.0901 55.7274 37.0901H98.2726C99.1777 37.0901 99.9095 37.8218 99.9095 38.727V81.2722Z" fill="url(#paint1_linear_1446_18984)"/>
<path d="M96.6363 40.3643H57.3633V79.6373H96.6363V40.3643Z" fill="url(#paint2_linear_1446_18984)"/>
</g>
<defs>
<radialGradient id="paint0_radial_1446_18984" cx="0" cy="0" r="1" gradientUnits="userSpaceOnUse" gradientTransform="translate(77.5 60) rotate(90) scale(60 60)">
<stop stop-color="#CAFC01"/>
<stop offset="1" stop-color="#CAFC01" stop-opacity="0"/>
</radialGradient>
<linearGradient id="paint1_linear_1446_18984" x1="77.0008" y1="23.998" x2="77.0008" y2="95.8839" gradientUnits="userSpaceOnUse">
<stop stop-color="#A3A3A3"/>
<stop offset="1" stop-color="white"/>
</linearGradient>
<linearGradient id="paint2_linear_1446_18984" x1="74.9394" y1="79.2693" x2="74.9394" y2="40.3595" gradientUnits="userSpaceOnUse">
<stop stop-color="#ADDF7C" stop-opacity="0.88"/>
<stop offset="1" stop-color="#BB981C"/>
</linearGradient>
<clipPath id="clip0_1446_18984">
<rect width="72" height="72" fill="white" transform="translate(41 24)"/>
</clipPath>
</defs>
</svg>
