<svg width="30" height="30" viewBox="0 0 30 30" fill="none" xmlns="http://www.w3.org/2000/svg">
<path d="M0 15C0 6.71573 6.71573 0 15 0V0C23.2843 0 30 6.71573 30 15V15C30 23.2843 23.2843 30 15 30V30C6.71573 30 0 23.2843 0 15V15Z" fill="#BFF009"/>
<path fill-rule="evenodd" clip-rule="evenodd" d="M15.6173 8.72848C15.1119 8.72848 14.7002 9.13996 14.7002 9.64504C14.7002 10.1501 15.1129 10.5616 15.6182 10.5616H18.9401V18.9987H16.6563V18.2382C15.548 19.3839 13.4963 19.4385 12.1842 18.6126C10.714 17.735 10.0389 15.9185 10.2828 14.2346C10.4915 12.7009 11.3881 11.4889 12.7383 10.9184C12.5656 10.5294 12.469 10.0984 12.469 9.64504C12.469 7.90749 13.8788 6.49854 15.6173 6.49854H17.2582V8.72848H15.6173ZM16.707 14.9103V12.7925H14.588C13.4183 12.7925 12.469 13.7412 12.469 14.9103C12.469 16.0794 13.4183 17.0281 14.588 17.0281C15.7578 17.0281 16.707 16.0804 16.707 14.9103Z" fill="#040404"/>
</svg>