<svg xmlns="http://www.w3.org/2000/svg" width="43" height="38" viewBox="0 0 43 38" fill="none">
    <path d="M43.1846 0.5C36.7605 3.89325 29.4456 5.81331 21.6846 5.81331C13.9235 5.81331 6.60866 3.89325 0.18457 0.5V4.13129C0.18457 5.01432 0.691291 5.82184 1.49743 6.17293C3.1682 6.90083 4.88549 7.54104 6.64362 8.08798H2.44773V9.22532C2.44773 10.4815 3.46094 11.5 4.71089 11.5H38.6583C39.9082 11.5 40.9214 10.4815 40.9214 9.22532V8.08798H36.7255C38.4837 7.54104 40.2009 6.90083 41.8717 6.17293C42.6779 5.82184 43.1846 5.01432 43.1846 4.13129V0.5Z" fill="url(#paint0_linear_6224_18368)"/>
    <path d="M36.6846 15.7857C36.6846 14.5233 35.6514 13.5 34.3769 13.5H8.99226C7.71772 13.5 6.68457 14.5233 6.68457 15.7857V35.2143C6.68457 36.4767 7.71772 37.5 8.99226 37.5H12.4538V20.3571C12.4538 19.7259 12.9704 19.2143 13.6076 19.2143H29.7615C30.3988 19.2143 30.9153 19.7259 30.9153 20.3571V37.5H34.3769C35.6514 37.5 36.6846 36.4767 36.6846 35.2143V15.7857Z" fill="url(#paint1_linear_6224_18368)"/>
    <defs>
        <linearGradient id="paint0_linear_6224_18368" x1="0.184571" y1="19" x2="43.1846" y2="19" gradientUnits="userSpaceOnUse">
            <stop stop-color="#F9F128"/>
            <stop offset="0.5" stop-color="#C2F147"/>
            <stop offset="1" stop-color="#2CEAA3"/>
        </linearGradient>
        <linearGradient id="paint1_linear_6224_18368" x1="0.184571" y1="19" x2="43.1846" y2="19" gradientUnits="userSpaceOnUse">
            <stop stop-color="#F9F128"/>
            <stop offset="0.5" stop-color="#C2F147"/>
            <stop offset="1" stop-color="#2CEAA3"/>
        </linearGradient>
    </defs>
</svg>