<svg width="63" height="65" viewBox="0 0 63 65" fill="none" xmlns="http://www.w3.org/2000/svg">
<path d="M52.2459 50.0375L37.4805 35.4473L34.5567 38.4062L49.3222 52.9964L52.2459 50.0375Z" fill="#243300"/>
<path d="M57.8847 53.9579L46.3971 42.6066C46.3331 42.5434 46.23 42.544 46.1668 42.608L41.8188 47.0082C41.7557 47.0721 41.7563 47.1752 41.8202 47.2384L53.3078 58.5897C53.3718 58.6529 53.4749 58.6523 53.5381 58.5883L57.886 54.1881C57.9492 54.1242 57.9486 54.0211 57.8847 53.9579Z" fill="#698902"/>
<path d="M24.3931 42.7861C34.5513 42.7861 42.7861 34.5513 42.7861 24.3931C42.7861 14.2349 34.5513 6 24.3931 6C14.2348 6 6 14.2349 6 24.3931C6 34.5513 14.2348 42.7861 24.3931 42.7861Z" fill="#698902"/>
<path d="M24.3938 39.7857C32.8945 39.7857 39.7857 32.8945 39.7857 24.3938C39.7857 15.8931 32.8945 9.00195 24.3938 9.00195C15.8931 9.00195 9.00195 15.8931 9.00195 24.3938C9.00195 32.8945 15.8931 39.7857 24.3938 39.7857Z" fill="#D4E5FF"/>
<path d="M19.5798 47.0807C18.8304 47.4632 18.2112 48.0594 17.8007 48.7937C17.3901 49.5281 17.2065 50.3678 17.2731 51.2065C17.3397 52.0452 17.6536 52.8454 18.1749 53.5057C18.6963 54.1661 19.4018 54.657 20.2022 54.9164C21.0025 55.1758 21.8619 55.1921 22.6715 54.9631C23.4811 54.7342 24.2046 54.2703 24.7506 53.6301C25.2965 52.9899 25.6404 52.2022 25.7387 51.3666C25.837 50.531 25.6853 49.685 25.3027 48.9356C24.7889 47.9316 23.8977 47.1724 22.8248 46.8247C21.7519 46.4769 20.5849 46.569 19.5798 47.0807ZM20.5706 49.0218C20.804 48.9026 21.0675 48.8555 21.3278 48.8863C21.588 48.9172 21.8332 49.0246 22.0323 49.195C22.2314 49.3654 22.3754 49.5911 22.446 49.8435C22.5166 50.0958 22.5107 50.3635 22.429 50.6125C22.3473 50.8615 22.1935 51.0806 21.987 51.242C21.7806 51.4035 21.5309 51.4999 21.2695 51.5192C21.0082 51.5386 20.747 51.4798 20.5191 51.3505C20.2912 51.2211 20.1069 51.027 19.9894 50.7927C19.8338 50.4804 19.8076 50.1193 19.9164 49.7878C20.0251 49.4563 20.2602 49.181 20.5706 49.0216V49.0218ZM23.0498 53.8788C22.3579 54.2333 21.5643 54.3362 20.8049 54.1699C21.0445 53.2996 21.537 52.6316 22.2322 52.2768C22.9274 51.922 23.7613 51.9023 24.6025 52.2315C24.2916 52.944 23.7427 53.5263 23.0498 53.8786V53.8788Z" fill="#698902"/>
</svg>
