<svg width="375" height="238" viewBox="0 0 375 238" fill="none" xmlns="http://www.w3.org/2000/svg">
<g clip-path="url(#clip0_375_10782)">
<rect x="384" width="237.71" height="393" rx="2.18333" transform="rotate(90 384 0)" fill="url(#paint0_linear_375_10782)"/>
<g style="mix-blend-mode:luminosity" opacity="0.4">
<path d="M58.3596 145.395L56.3827 153.325C56.2335 153.884 55.8446 154.024 55.2918 153.76L52.2797 151.872L50.8264 153.061C50.6656 153.198 50.531 153.312 50.221 153.312L50.4374 150.703L56.0201 146.412C56.2628 146.228 55.9674 146.126 55.6428 146.31L48.7413 150.006L45.7701 149.215C45.1239 149.044 45.1122 148.666 45.9046 148.402L57.5261 144.594C58.0641 144.422 58.535 144.696 58.3596 145.395Z" fill="#20A0E1"/>
</g>
<g filter="url(#filter0_d_375_10782)">
<path d="M105.316 51.2638C102.322 53.3492 100.961 56.5705 102.276 58.4586L103.44 60.1303C104.755 62.0187 108.249 61.858 111.243 59.7726C114.237 57.6872 115.598 54.4663 114.283 52.5779L113.119 50.9061C111.803 49.018 108.31 49.1784 105.316 51.2638ZM109.567 57.3673C107.026 59.1374 104.023 59.4031 103.009 57.9478C101.995 56.4922 103.285 53.7672 105.827 51.9971C108.368 50.227 111.371 49.9613 112.385 51.4169C113.399 52.8722 112.109 55.5972 109.567 57.3673Z" fill="#D87316"/>
<path d="M109.278 52.4532C109.218 52.4251 109.206 52.4291 109.166 52.4204C109.125 52.4117 109.082 52.4052 109.037 52.4005C108.991 52.3963 108.942 52.3941 108.891 52.3937C108.84 52.3935 108.786 52.3951 108.73 52.399C108.686 52.4021 108.639 52.4068 108.591 52.413C108.543 52.4189 108.493 52.4266 108.441 52.4356C108.389 52.4445 108.335 52.4555 108.279 52.4677C108.223 52.4795 108.165 52.4934 108.105 52.5085L108.143 52.0675L107.359 52.2919L107.321 52.7283L106.334 53.0106L106.011 53.1029L105.982 53.4331L105.977 53.4976L105.982 53.5458L106.009 53.5736C106.023 53.579 106.044 53.5804 106.072 53.577L106.08 53.5762L106.09 53.5751L106.101 53.5738L106.114 53.5717L106.131 53.5692L106.153 53.5663L106.181 53.562L106.215 53.5573L106.235 53.5583L106.237 53.5642L106.245 53.5691L106.285 53.5661L106.02 56.5214C105.999 56.5307 105.986 56.5369 105.979 56.5419L105.969 56.5525L105.966 56.5601L105.945 56.5717L105.91 56.5869L105.881 56.5988L105.858 56.6089L105.84 56.6167L105.828 56.6215L105.816 56.6263L105.806 56.6309L105.798 56.6346C105.768 56.6478 105.747 56.6614 105.73 56.6758C105.714 56.69 105.703 56.7049 105.696 56.7213L105.681 56.7751L105.675 56.8409L105.645 57.1742L105.97 57.0823L106.961 56.8015L106.925 57.2151L107.714 56.9918L107.75 56.578L107.851 56.5497C107.924 56.5289 107.995 56.5068 108.064 56.4835C108.132 56.4602 108.2 56.4354 108.265 56.4099C108.33 56.384 108.393 56.3567 108.455 56.3286C108.515 56.3001 108.575 56.2708 108.632 56.2402C108.69 56.2088 108.746 56.1768 108.8 56.1439C108.853 56.1108 108.905 56.0772 108.954 56.0431C109.003 56.0085 109.05 55.9732 109.096 55.937C109.141 55.9013 109.184 55.8644 109.225 55.8271C109.266 55.7896 109.305 55.7513 109.341 55.7124C109.377 55.6736 109.412 55.6343 109.444 55.5941C109.476 55.5539 109.506 55.5133 109.534 55.4722C109.561 55.431 109.587 55.389 109.61 55.3467C109.633 55.3039 109.654 55.2613 109.672 55.2185C109.691 55.1758 109.706 55.1328 109.72 55.0901C109.733 55.0467 109.744 55.0038 109.753 54.9607C109.762 54.9177 109.768 54.8747 109.772 54.8314C109.782 54.7112 109.77 54.6082 109.735 54.5227C109.701 54.4372 109.644 54.3685 109.564 54.3174C109.485 54.2659 109.383 54.2321 109.259 54.2151C109.135 54.1979 108.989 54.1981 108.821 54.2151C108.86 54.1933 109.002 54.068 109.02 54.0486C109.039 54.0294 109.06 54.0089 109.09 53.9855C109.119 53.9621 109.147 53.9383 109.173 53.9147C109.2 53.8908 109.226 53.8673 109.25 53.843C109.275 53.8193 109.298 53.7956 109.32 53.7715C109.342 53.7476 109.363 53.7235 109.382 53.6989C109.403 53.675 109.421 53.6508 109.439 53.6268C109.456 53.6026 109.472 53.5785 109.487 53.5541C109.502 53.5304 109.517 53.506 109.529 53.4816C109.542 53.4573 109.554 53.4328 109.565 53.408C109.575 53.3841 109.585 53.36 109.593 53.336C109.601 53.3114 109.609 53.2878 109.615 53.2634L109.63 53.1915L109.64 53.1196C109.644 53.0777 109.645 53.0376 109.644 52.9995C109.642 52.961 109.639 52.9245 109.634 52.8897C109.628 52.8548 109.621 52.8213 109.611 52.7899C109.601 52.7584 109.587 52.717 109.575 52.6998C109.549 52.6624 109.528 52.6263 109.474 52.5792C109.404 52.5187 109.338 52.4809 109.278 52.4532ZM108.707 54.8849L108.725 54.933L108.736 54.986L108.741 55.0444L108.739 55.1078L108.73 55.172L108.716 55.2355L108.697 55.2987L108.671 55.3625C108.662 55.3832 108.651 55.4041 108.64 55.4243C108.627 55.4451 108.615 55.4651 108.601 55.4854C108.586 55.5052 108.571 55.5251 108.555 55.545C108.538 55.5643 108.52 55.5841 108.502 55.6036C108.483 55.6225 108.463 55.6413 108.442 55.6595C108.42 55.678 108.397 55.6962 108.373 55.7144C108.349 55.7321 108.323 55.7498 108.296 55.767C108.269 55.7842 108.24 55.8017 108.211 55.8184C108.182 55.8349 108.15 55.8509 108.117 55.8665C108.084 55.8823 108.049 55.8972 108.012 55.9115C107.976 55.9257 107.937 55.9395 107.898 55.9524C107.858 55.9659 107.816 55.9787 107.773 55.991L106.95 56.2247L107.056 55.0287L107.874 54.7964C107.915 54.7846 107.954 54.7742 107.991 54.7647C108.029 54.7559 108.065 54.7478 108.099 54.7411C108.134 54.7349 108.167 54.7289 108.198 54.7252C108.229 54.7209 108.259 54.7179 108.287 54.7163C108.315 54.7149 108.343 54.7142 108.368 54.7151C108.394 54.7156 108.418 54.7175 108.44 54.7204L108.504 54.7319L108.56 54.7497L108.608 54.7748L108.649 54.8056L108.682 54.8422L108.707 54.8849ZM108.707 53.3299C108.712 53.3726 108.713 53.4201 108.708 53.4729C108.704 53.524 108.695 53.5731 108.68 53.6203C108.667 53.6675 108.648 53.7125 108.625 53.7561C108.601 53.7988 108.573 53.8398 108.539 53.8793C108.506 53.918 108.468 53.9555 108.425 53.9902C108.382 54.0255 108.335 54.0591 108.283 54.0912C108.232 54.1231 108.175 54.1534 108.115 54.1822C108.055 54.2105 107.99 54.2377 107.92 54.2629C107.851 54.2887 107.777 54.3126 107.698 54.3348L107.102 54.505L107.205 53.3301L107.853 53.1452C107.931 53.1229 108.003 53.1049 108.07 53.0911C108.137 53.0775 108.198 53.068 108.255 53.0631C108.311 53.058 108.362 53.057 108.407 53.0607C108.453 53.0639 108.493 53.0717 108.527 53.0837C108.563 53.0955 108.592 53.1127 108.617 53.1347C108.642 53.1572 108.662 53.1845 108.677 53.217C108.692 53.2496 108.702 53.2873 108.707 53.3299Z" fill="#D87316"/>
</g>
<path d="M296.988 183.309C306.057 191.697 306.057 191.697 315.125 183.309C306.057 191.697 306.057 191.697 315.125 200.086C306.057 191.697 306.057 191.697 296.988 200.086C306.057 191.697 306.057 191.697 296.988 183.309Z" fill="#83F6A4"/>
<path d="M299.921 5.29917C299.245 5.29917 298.695 4.83158 298.695 4.25652C298.695 3.68146 299.245 3.21387 299.921 3.21387C300.597 3.21387 301.147 3.68146 301.147 4.25652C301.147 4.83158 300.597 5.29917 299.921 5.29917ZM299.921 3.33711C299.325 3.33711 298.84 3.74949 298.84 4.25652C298.84 4.76355 299.325 5.17592 299.921 5.17592C300.517 5.17592 301.002 4.76355 301.002 4.25652C301.002 3.74949 300.517 3.33711 299.921 3.33711Z" fill="#363940"/>
<path d="M319.651 17.5274C319.251 17.5274 318.926 17.2508 318.926 16.9107C318.926 16.5705 319.251 16.2939 319.651 16.2939C320.051 16.2939 320.376 16.5705 320.376 16.9107C320.376 17.2508 320.05 17.5274 319.651 17.5274ZM319.651 16.3667C319.298 16.3667 319.012 16.6107 319.012 16.9104C319.012 17.2104 319.298 17.4544 319.651 17.4544C320.004 17.4544 320.29 17.2104 320.29 16.9104C320.29 16.6107 320.003 16.3667 319.651 16.3667Z" fill="#363940"/>
<path d="M235.741 73.9127L236.81 74.2876L235.815 74.5925L235.466 75.4311L235.098 74.5698L234.082 74.2538L235.143 73.9228L235.426 73.1104L235.741 73.9127Z" fill="#363940"/>
<path d="M331.073 97.0855L332.142 97.4604L331.147 97.7653L330.798 98.6039L330.43 97.7427L329.414 97.4267L330.474 97.0954L330.758 96.2832L331.073 97.0855Z" fill="#363940"/>
<path d="M225.183 115.151L226.082 115.466L225.246 115.722L224.952 116.427L224.643 115.703L223.789 115.437L224.68 115.159L224.919 114.477L225.183 115.151Z" fill="#363940"/>
<g filter="url(#filter1_d_375_10782)">
<path d="M314.582 21.0236C312.77 19.5357 310.747 18.2894 308.566 17.3176C308.119 17.738 307.569 18.3165 307.166 18.7858C304.798 17.7917 302.337 17.1592 299.783 16.8883C299.724 16.3003 299.596 15.5475 299.466 14.979C297.037 14.7662 294.577 14.8622 292.152 15.2644C285.972 20.2489 282.913 25.8723 281.596 31.8525C283.748 34.56 286.067 36.4646 288.475 37.94C289.418 37.2429 290.301 36.4751 291.114 35.6447C290.27 35.052 289.486 34.3875 288.772 33.6592C289.055 33.5556 289.336 33.4438 289.612 33.3238C294.159 37.0562 299.932 38.5398 305.948 37.5221C306.112 37.7539 306.282 37.9816 306.458 38.2047C305.417 38.4833 304.354 38.6742 303.283 38.775C303.477 39.8684 303.764 40.9376 304.145 41.9696C307.067 41.8645 310.171 41.3533 313.612 40.0806C316.472 33.4907 316.554 27.1612 314.582 21.0236ZM293.401 31.0006C291.807 30.5907 290.958 28.8363 291.517 27.1094C292.076 25.3824 293.816 24.2908 295.439 24.7079C297.062 25.125 297.911 26.8792 297.323 28.6015C296.766 30.3291 295.024 31.4177 293.401 31.0006ZM304.129 33.7577C302.534 33.3478 301.686 31.5934 302.245 29.8665C302.804 28.1395 304.544 27.0478 306.167 27.4649C307.79 27.882 308.638 29.6362 308.051 31.3586C307.491 33.0855 305.752 34.1748 304.129 33.7577Z" fill="#5865F2"/>
<path d="M314.582 21.0236C312.77 19.5357 310.747 18.2894 308.566 17.3176C308.119 17.738 307.569 18.3165 307.166 18.7858C304.798 17.7917 302.337 17.1592 299.783 16.8883C299.724 16.3003 299.596 15.5475 299.466 14.979C297.037 14.7662 294.577 14.8622 292.152 15.2644C285.972 20.2489 282.913 25.8723 281.596 31.8525C283.748 34.56 286.067 36.4646 288.475 37.94C289.418 37.2429 290.301 36.4751 291.114 35.6447C290.27 35.052 289.486 34.3875 288.772 33.6592C289.055 33.5556 289.336 33.4438 289.612 33.3238C294.159 37.0562 299.932 38.5398 305.948 37.5221C306.112 37.7539 306.282 37.9816 306.458 38.2047C305.417 38.4833 304.354 38.6742 303.283 38.775C303.477 39.8684 303.764 40.9376 304.145 41.9696C307.067 41.8645 310.171 41.3533 313.612 40.0806C316.472 33.4907 316.554 27.1612 314.582 21.0236ZM293.401 31.0006C291.807 30.5907 290.958 28.8363 291.517 27.1094C292.076 25.3824 293.816 24.2908 295.439 24.7079C297.062 25.125 297.911 26.8792 297.323 28.6015C296.766 30.3291 295.024 31.4177 293.401 31.0006ZM304.129 33.7577C302.534 33.3478 301.686 31.5934 302.245 29.8665C302.804 28.1395 304.544 27.0478 306.167 27.4649C307.79 27.882 308.638 29.6362 308.051 31.3586C307.491 33.0855 305.752 34.1748 304.129 33.7577Z" fill="#5865F2"/>
</g>
<path opacity="0.2" d="M56.5621 131.567C61.2451 144.118 54.0293 157.802 40.4458 162.13C26.8678 166.455 12.0597 159.787 7.37786 147.236C2.69269 134.684 9.90693 121 23.487 116.674C37.0698 112.346 51.8788 119.015 56.5621 131.567Z" fill="#F7931A"/>
<path fill-rule="evenodd" clip-rule="evenodd" d="M36.8917 133.112C35.9058 131.115 33.7182 131.038 31.2088 131.616L30.1399 128.752L28.2524 129.353L29.2932 132.143C28.7976 132.3 28.2939 132.471 27.7936 132.641L26.7463 129.833L24.8603 130.434L25.9281 133.298C25.5224 133.436 25.1238 133.571 24.7327 133.696L24.7292 133.687L22.1262 134.515L22.8215 136.378C22.8215 136.378 24.2059 135.909 24.1915 135.94C24.956 135.697 25.3582 136.027 25.5621 136.358L26.7799 139.622C26.8328 139.606 26.9023 139.586 26.9839 139.571L26.7851 139.634L28.49 144.207C28.5394 144.44 28.5302 144.839 27.9965 145.01C28.028 145.022 26.6247 145.447 26.6247 145.447L27.027 147.649L29.4831 146.867C29.7606 146.779 30.0362 146.694 30.3089 146.61L30.309 146.61C30.4856 146.556 30.6609 146.502 30.8346 146.448L31.9167 149.345L33.8018 148.745L32.7326 145.878C33.2534 145.723 33.7557 145.567 34.2446 145.411L35.3084 148.265L37.1954 147.664L36.1169 144.771C39.2266 143.592 41.1719 142.146 40.4199 139.306C39.8154 137.018 38.3184 136.388 36.3681 136.562C37.2695 135.698 37.6151 134.573 36.8913 133.112L36.8917 133.112ZM36.5627 140.149C37.3047 142.136 33.9092 143.169 32.357 143.641C32.218 143.683 32.0938 143.721 31.9887 143.755L30.5569 139.916C30.6854 139.875 30.8403 139.822 31.0157 139.761L31.0158 139.761C32.5861 139.222 35.8041 138.118 36.5631 140.149L36.5627 140.149ZM30.213 138.063C31.51 137.671 34.337 136.818 33.6639 135.013C32.9749 133.165 30.2952 134.093 28.9865 134.547C28.8394 134.598 28.7096 134.642 28.6019 134.677L29.9008 138.159C29.9897 138.13 30.095 138.099 30.213 138.063Z" fill="#F7931A"/>
</g>
<defs>
<filter id="filter0_d_375_10782" x="83.5195" y="37.6623" width="49.5195" height="48.8115" filterUnits="userSpaceOnUse" color-interpolation-filters="sRGB">
<feFlood flood-opacity="0" result="BackgroundImageFix"/>
<feColorMatrix in="SourceAlpha" type="matrix" values="0 0 0 0 0 0 0 0 0 0 0 0 0 0 0 0 0 0 127 0" result="hardAlpha"/>
<feOffset dy="6.55"/>
<feGaussianBlur stdDeviation="8.1875"/>
<feComposite in2="hardAlpha" operator="out"/>
<feColorMatrix type="matrix" values="0 0 0 0 0.981858 0 0 0 0 0.668754 0 0 0 0 0.199099 0 0 0 1 0"/>
<feBlend mode="normal" in2="BackgroundImageFix" result="effect1_dropShadow_375_10782"/>
<feBlend mode="normal" in="SourceGraphic" in2="effect1_dropShadow_375_10782" result="shape"/>
</filter>
<filter id="filter1_d_375_10782" x="239.058" y="-10.6547" width="119.412" height="112.18" filterUnits="userSpaceOnUse" color-interpolation-filters="sRGB">
<feFlood flood-opacity="0" result="BackgroundImageFix"/>
<feColorMatrix in="SourceAlpha" type="matrix" values="0 0 0 0 0 0 0 0 0 0 0 0 0 0 0 0 0 0 127 0" result="hardAlpha"/>
<feOffset dy="17.0159"/>
<feGaussianBlur stdDeviation="21.2699"/>
<feComposite in2="hardAlpha" operator="out"/>
<feColorMatrix type="matrix" values="0 0 0 0 0.345098 0 0 0 0 0.396078 0 0 0 0 0.94902 0 0 0 0.3 0"/>
<feBlend mode="normal" in2="BackgroundImageFix" result="effect1_dropShadow_375_10782"/>
<feBlend mode="normal" in="SourceGraphic" in2="effect1_dropShadow_375_10782" result="shape"/>
</filter>
<linearGradient id="paint0_linear_375_10782" x1="441.313" y1="196.5" x2="758.442" y2="181.626" gradientUnits="userSpaceOnUse">
<stop stop-color="#060B12"/>
<stop offset="1"/>
</linearGradient>
<clipPath id="clip0_375_10782">
<rect x="384" width="237.71" height="393" rx="2.18333" transform="rotate(90 384 0)" fill="white"/>
</clipPath>
</defs>
</svg>
