<svg width="1440" height="871" viewBox="0 0 1440 871" fill="none" xmlns="http://www.w3.org/2000/svg">
<g clip-path="url(#clip0_375_9987)">
<rect x="1440" width="871" height="1440" rx="8" transform="rotate(90 1440 0)" fill="url(#paint0_linear_375_9987)"/>
<g style="mix-blend-mode:luminosity" opacity="0.4">
<path d="M246.812 532.742L239.569 561.798C239.022 563.849 237.597 564.359 235.572 563.394L224.535 556.476L219.21 560.832C218.621 561.334 218.128 561.753 216.992 561.753L217.785 552.192L238.24 536.47C239.13 535.795 238.047 535.422 236.858 536.096L211.57 549.64L200.683 546.742C198.315 546.113 198.272 544.727 201.176 543.761L243.759 529.807C245.73 529.178 247.455 530.181 246.812 532.742Z" fill="#20A0E1"/>
</g>
<g filter="url(#filter0_d_375_9987)">
<path d="M418.865 187.836C407.895 195.478 402.906 207.28 407.725 214.199L411.991 220.324C416.811 227.244 429.61 226.655 440.581 219.013C451.551 211.372 456.54 199.571 451.721 192.651L447.454 186.526C442.636 179.608 429.835 180.195 418.865 187.836ZM434.442 210.2C425.13 216.686 414.126 217.66 410.411 212.327C406.696 206.994 411.425 197.009 420.736 190.523C430.048 184.037 441.053 183.064 444.767 188.397C448.482 193.73 443.754 203.714 434.442 210.2Z" fill="#D87316"/>
<path d="M433.38 192.194C433.161 192.091 433.117 192.105 432.969 192.073C432.821 192.042 432.663 192.018 432.497 192.001C432.328 191.985 432.151 191.977 431.964 191.975C431.776 191.975 431.579 191.981 431.373 191.995C431.211 192.006 431.04 192.023 430.865 192.046C430.689 192.068 430.503 192.096 430.314 192.129C430.122 192.162 429.925 192.202 429.719 192.247C429.515 192.29 429.302 192.341 429.083 192.396L429.223 190.78L426.349 191.603L426.21 193.202L422.594 194.236L421.411 194.574L421.303 195.784L421.284 196.021L421.302 196.197L421.404 196.299C421.455 196.319 421.531 196.324 421.634 196.311L421.664 196.308L421.701 196.304L421.741 196.3L421.786 196.292L421.848 196.283L421.931 196.272L422.033 196.256L422.156 196.239L422.229 196.243L422.237 196.264L422.267 196.283L422.413 196.271L421.442 207.1C421.364 207.134 421.319 207.157 421.292 207.175L421.255 207.214L421.243 207.242L421.167 207.284L421.04 207.34L420.933 207.384L420.849 207.421L420.785 207.449L420.739 207.467L420.696 207.484L420.659 207.501L420.629 207.515C420.52 207.563 420.441 207.613 420.381 207.666C420.322 207.718 420.282 207.772 420.256 207.832L420.202 208.03L420.179 208.271L420.07 209.492L421.26 209.155L424.89 208.126L424.757 209.642L427.648 208.824L427.78 207.307L428.151 207.204C428.419 207.127 428.679 207.047 428.931 206.961C429.183 206.876 429.43 206.785 429.667 206.692C429.907 206.596 430.138 206.497 430.364 206.394C430.586 206.289 430.805 206.182 431.015 206.07C431.227 205.955 431.431 205.837 431.628 205.717C431.823 205.595 432.012 205.472 432.192 205.347C432.374 205.221 432.546 205.091 432.713 204.959C432.878 204.828 433.036 204.693 433.186 204.556C433.337 204.418 433.478 204.278 433.613 204.136C433.745 203.994 433.871 203.85 433.99 203.702C434.106 203.555 434.216 203.406 434.318 203.256C434.418 203.105 434.513 202.951 434.596 202.796C434.681 202.639 434.758 202.483 434.825 202.326C434.892 202.169 434.95 202.012 435 201.855C435.049 201.697 435.089 201.539 435.122 201.381C435.154 201.224 435.176 201.066 435.189 200.908C435.227 200.467 435.182 200.09 435.055 199.776C434.929 199.463 434.721 199.211 434.429 199.024C434.139 198.836 433.766 198.712 433.312 198.65C432.858 198.586 432.321 198.587 431.704 198.65C431.85 198.57 432.37 198.111 432.435 198.039C432.503 197.969 432.582 197.894 432.69 197.808C432.798 197.722 432.899 197.635 432.997 197.549C433.095 197.461 433.19 197.375 433.279 197.286C433.368 197.199 433.453 197.112 433.534 197.024C433.615 196.937 433.691 196.848 433.763 196.758C433.837 196.671 433.905 196.582 433.97 196.494C434.032 196.405 434.091 196.317 434.148 196.227C434.203 196.14 434.256 196.051 434.301 195.962C434.349 195.873 434.393 195.783 434.432 195.692C434.47 195.605 434.504 195.516 434.535 195.428C434.566 195.338 434.592 195.252 434.614 195.162L434.672 194.899L434.706 194.635C434.72 194.482 434.724 194.335 434.72 194.195C434.716 194.054 434.704 193.92 434.685 193.793C434.665 193.665 434.637 193.542 434.6 193.427C434.564 193.312 434.513 193.16 434.469 193.097C434.373 192.96 434.297 192.828 434.098 192.655C433.843 192.433 433.602 192.295 433.38 192.194ZM431.289 201.104L431.354 201.28L431.396 201.474L431.411 201.688L431.404 201.92L431.373 202.156L431.321 202.388L431.25 202.62L431.157 202.854C431.124 202.929 431.083 203.006 431.041 203.08C430.997 203.156 430.951 203.23 430.898 203.304C430.846 203.377 430.791 203.449 430.73 203.522C430.669 203.593 430.604 203.665 430.535 203.737C430.467 203.806 430.394 203.875 430.316 203.942C430.237 204.009 430.154 204.076 430.064 204.143C429.976 204.208 429.88 204.273 429.782 204.336C429.684 204.399 429.579 204.463 429.47 204.524C429.363 204.584 429.247 204.643 429.127 204.7C429.005 204.758 428.877 204.813 428.743 204.865C428.608 204.917 428.468 204.968 428.323 205.015C428.177 205.064 428.025 205.111 427.867 205.156L424.851 206.013L425.238 201.63L428.236 200.779C428.386 200.736 428.528 200.698 428.666 200.663C428.806 200.631 428.936 200.601 429.062 200.577C429.188 200.554 429.31 200.532 429.422 200.518C429.538 200.503 429.647 200.492 429.751 200.486C429.854 200.481 429.953 200.478 430.047 200.481C430.14 200.483 430.228 200.49 430.311 200.501L430.545 200.543L430.749 200.608L430.927 200.7L431.075 200.813L431.196 200.947L431.289 201.104ZM431.289 195.406C431.308 195.562 431.308 195.736 431.292 195.93C431.276 196.117 431.243 196.297 431.191 196.47C431.142 196.643 431.073 196.808 430.986 196.967C430.901 197.124 430.797 197.274 430.674 197.419C430.553 197.561 430.413 197.698 430.253 197.825C430.096 197.955 429.925 198.078 429.735 198.195C429.546 198.312 429.341 198.423 429.119 198.529C428.898 198.633 428.659 198.732 428.405 198.825C428.15 198.919 427.88 199.007 427.593 199.088L425.407 199.712L425.787 195.407L428.158 194.729C428.443 194.647 428.709 194.581 428.954 194.531C429.199 194.481 429.425 194.446 429.632 194.428C429.837 194.41 430.023 194.406 430.19 194.42C430.356 194.431 430.504 194.46 430.63 194.504C430.759 194.547 430.868 194.61 430.958 194.691C431.05 194.773 431.123 194.873 431.177 194.992C431.233 195.112 431.27 195.25 431.289 195.406Z" fill="#D87316"/>
</g>
<path d="M1121.18 671.662C1154.41 702.399 1154.41 702.399 1187.64 671.662C1154.41 702.399 1154.41 702.399 1187.64 733.135C1154.41 702.399 1154.41 702.399 1121.18 733.135C1154.41 702.399 1154.41 702.399 1121.18 671.662Z" fill="#83F6A4"/>
<path d="M1131.93 19.4142C1129.45 19.4142 1127.44 17.7009 1127.44 15.5938C1127.44 13.4867 1129.45 11.7734 1131.93 11.7734C1134.41 11.7734 1136.42 13.4867 1136.42 15.5938C1136.42 17.7009 1134.41 19.4142 1131.93 19.4142ZM1131.93 12.225C1129.74 12.225 1127.97 13.736 1127.97 15.5938C1127.97 17.4517 1129.74 18.9627 1131.93 18.9627C1134.11 18.9627 1135.89 17.4517 1135.89 15.5938C1135.89 13.736 1134.11 12.225 1131.93 12.225Z" fill="#363940"/>
<path d="M1204.21 64.2226C1202.75 64.2226 1201.55 63.2092 1201.55 61.9628C1201.55 60.7165 1202.75 59.7031 1204.21 59.7031C1205.68 59.7031 1206.87 60.7165 1206.87 61.9628C1206.87 63.2092 1205.68 64.2226 1204.21 64.2226ZM1204.21 59.9696C1202.92 59.9696 1201.87 60.8637 1201.87 61.9619C1201.87 63.0611 1202.92 63.9552 1204.21 63.9552C1205.5 63.9552 1206.55 63.0611 1206.55 61.9619C1206.55 60.8637 1205.5 59.9696 1204.21 59.9696Z" fill="#363940"/>
<path d="M896.763 270.826L900.681 272.199L897.033 273.316L895.755 276.389L894.407 273.233L890.684 272.076L894.57 270.863L895.609 267.886L896.763 270.826Z" fill="#363940"/>
<path d="M1246.07 355.734L1249.99 357.107L1246.34 358.225L1245.06 361.297L1243.71 358.142L1239.99 356.984L1243.87 355.77L1244.91 352.794L1246.07 355.734Z" fill="#363940"/>
<path d="M858.073 421.926L861.367 423.081L858.302 424.02L857.227 426.602L856.095 423.95L852.965 422.977L856.231 421.957L857.105 419.456L858.073 421.926Z" fill="#363940"/>
<path d="M1264.85 868.87L1258.81 895.175C1258.35 897.032 1257.17 897.494 1255.48 896.62L1246.28 890.357L1241.84 894.301C1241.35 894.755 1240.94 895.134 1240 895.134L1240.66 886.478L1257.7 872.245C1258.44 871.634 1257.54 871.296 1256.55 871.906L1235.48 884.168L1226.41 881.544C1224.43 880.975 1224.4 879.72 1226.82 878.846L1262.3 866.213C1263.94 865.644 1265.38 866.551 1264.85 868.87Z" fill="#20A0E1"/>
<path d="M773.737 99.2504L778.363 98.3359L770.728 111.007L785.979 123.18L776.669 125.021L767.339 117.654L761.037 128.112L756.408 129.027L764.574 115.474L749.98 103.947L759.524 102.06L767.978 108.809L773.734 99.2509L773.737 99.2504ZM777.355 122.21L779.918 121.703L758.694 104.76L755.943 105.303L777.355 122.21Z" fill="#EBEDED"/>
<path d="M838.601 656.385L849.056 660.367L839.323 663.606L835.912 672.514L832.316 663.365L822.379 660.009L832.747 656.489L835.524 647.861L838.601 656.385Z" fill="#363940"/>
<path opacity="0.2" d="M1402.08 384.543C1398.61 398.391 1383.65 407.016 1368.66 403.808C1353.68 400.6 1344.34 386.774 1347.82 372.926C1351.29 359.078 1366.25 350.453 1381.23 353.661C1396.22 356.869 1405.55 370.695 1402.08 384.543Z" fill="#505050"/>
<g opacity="0.8">
<path d="M1377.78 367.082L1377.48 367.572L1373.65 382.847L1373.78 383.038L1382.5 380.489L1377.78 367.082Z" fill="white"/>
<path d="M1377.78 367.082L1367.16 377.204L1373.78 383.038L1375.64 375.624L1377.78 367.082Z" fill="white"/>
<path d="M1373.2 385.345L1373.08 385.431L1371.72 390.872L1371.75 391.147L1381.93 382.799L1373.2 385.345Z" fill="white"/>
<path d="M1371.75 391.147L1373.2 385.344L1366.58 379.513L1371.75 391.147Z" fill="white"/>
<path d="M1373.78 383.038L1382.5 380.489L1375.64 375.624L1373.78 383.038Z" fill="white"/>
<path d="M1367.16 377.204L1373.78 383.038L1375.64 375.624L1367.16 377.204Z" fill="white"/>
</g>
<g filter="url(#filter1_d_375_9987)">
<path d="M1370.58 21.0236C1368.77 19.5357 1366.75 18.2894 1364.57 17.3176C1364.12 17.738 1363.57 18.3165 1363.17 18.7858C1360.8 17.7917 1358.34 17.1592 1355.78 16.8883C1355.72 16.3003 1355.6 15.5475 1355.47 14.979C1353.04 14.7662 1350.58 14.8622 1348.15 15.2644C1341.97 20.2489 1338.91 25.8723 1337.6 31.8525C1339.75 34.56 1342.07 36.4646 1344.48 37.94C1345.42 37.2429 1346.3 36.4751 1347.11 35.6447C1346.27 35.052 1345.49 34.3875 1344.77 33.6592C1345.06 33.5556 1345.34 33.4438 1345.61 33.3238C1350.16 37.0562 1355.93 38.5398 1361.95 37.5221C1362.11 37.7539 1362.28 37.9816 1362.46 38.2047C1361.42 38.4833 1360.35 38.6742 1359.28 38.775C1359.48 39.8684 1359.76 40.9376 1360.14 41.9696C1363.07 41.8645 1366.17 41.3533 1369.61 40.0806C1372.47 33.4907 1372.55 27.1612 1370.58 21.0236ZM1349.4 31.0006C1347.81 30.5907 1346.96 28.8363 1347.52 27.1094C1348.08 25.3824 1349.82 24.2908 1351.44 24.7079C1353.06 25.125 1353.91 26.8792 1353.32 28.6015C1352.77 30.3291 1351.02 31.4177 1349.4 31.0006ZM1360.13 33.7577C1358.53 33.3478 1357.69 31.5934 1358.24 29.8665C1358.8 28.1395 1360.54 27.0478 1362.17 27.4649C1363.79 27.882 1364.64 29.6362 1364.05 31.3586C1363.49 33.0855 1361.75 34.1748 1360.13 33.7577Z" fill="#5865F2"/>
<path d="M1370.58 21.0236C1368.77 19.5357 1366.75 18.2894 1364.57 17.3176C1364.12 17.738 1363.57 18.3165 1363.17 18.7858C1360.8 17.7917 1358.34 17.1592 1355.78 16.8883C1355.72 16.3003 1355.6 15.5475 1355.47 14.979C1353.04 14.7662 1350.58 14.8622 1348.15 15.2644C1341.97 20.2489 1338.91 25.8723 1337.6 31.8525C1339.75 34.56 1342.07 36.4646 1344.48 37.94C1345.42 37.2429 1346.3 36.4751 1347.11 35.6447C1346.27 35.052 1345.49 34.3875 1344.77 33.6592C1345.06 33.5556 1345.34 33.4438 1345.61 33.3238C1350.16 37.0562 1355.93 38.5398 1361.95 37.5221C1362.11 37.7539 1362.28 37.9816 1362.46 38.2047C1361.42 38.4833 1360.35 38.6742 1359.28 38.775C1359.48 39.8684 1359.76 40.9376 1360.14 41.9696C1363.07 41.8645 1366.17 41.3533 1369.61 40.0806C1372.47 33.4907 1372.55 27.1612 1370.58 21.0236ZM1349.4 31.0006C1347.81 30.5907 1346.96 28.8363 1347.52 27.1094C1348.08 25.3824 1349.82 24.2908 1351.44 24.7079C1353.06 25.125 1353.91 26.8792 1353.32 28.6015C1352.77 30.3291 1351.02 31.4177 1349.4 31.0006ZM1360.13 33.7577C1358.53 33.3478 1357.69 31.5934 1358.24 29.8665C1358.8 28.1395 1360.54 27.0478 1362.17 27.4649C1363.79 27.882 1364.64 29.6362 1364.05 31.3586C1363.49 33.0855 1361.75 34.1748 1360.13 33.7577Z" fill="#5865F2"/>
</g>
<path opacity="0.2" d="M1112.56 131.567C1117.25 144.118 1110.03 157.802 1096.45 162.13C1082.87 166.455 1068.06 159.787 1063.38 147.236C1058.69 134.684 1065.91 121 1079.49 116.674C1093.07 112.346 1107.88 119.015 1112.56 131.567Z" fill="#F7931A"/>
<path fill-rule="evenodd" clip-rule="evenodd" d="M1092.89 133.112C1091.91 131.115 1089.72 131.038 1087.21 131.616L1086.14 128.752L1084.25 129.353L1085.29 132.143C1084.8 132.3 1084.29 132.471 1083.79 132.641L1082.75 129.833L1080.86 130.434L1081.93 133.298C1081.52 133.436 1081.12 133.571 1080.73 133.696L1080.73 133.687L1078.13 134.515L1078.82 136.378C1078.82 136.378 1080.21 135.909 1080.19 135.94C1080.96 135.697 1081.36 136.027 1081.56 136.358L1082.78 139.622C1082.83 139.606 1082.9 139.586 1082.98 139.571L1082.79 139.634L1084.49 144.207C1084.54 144.44 1084.53 144.839 1084 145.01C1084.03 145.022 1082.62 145.447 1082.62 145.447L1083.03 147.649L1085.48 146.867C1085.76 146.779 1086.04 146.694 1086.31 146.61L1086.31 146.61C1086.49 146.556 1086.66 146.502 1086.83 146.448L1087.92 149.345L1089.8 148.745L1088.73 145.878C1089.25 145.723 1089.76 145.567 1090.24 145.411L1091.31 148.265L1093.2 147.664L1092.12 144.771C1095.23 143.592 1097.17 142.146 1096.42 139.306C1095.82 137.018 1094.32 136.388 1092.37 136.562C1093.27 135.698 1093.62 134.573 1092.89 133.112L1092.89 133.112ZM1092.56 140.149C1093.3 142.136 1089.91 143.169 1088.36 143.641C1088.22 143.683 1088.09 143.721 1087.99 143.755L1086.56 139.916C1086.69 139.875 1086.84 139.822 1087.02 139.761L1087.02 139.761C1088.59 139.222 1091.8 138.118 1092.56 140.149L1092.56 140.149ZM1086.21 138.063C1087.51 137.671 1090.34 136.818 1089.66 135.013C1088.97 133.165 1086.3 134.093 1084.99 134.547C1084.84 134.598 1084.71 134.642 1084.6 134.677L1085.9 138.159C1085.99 138.13 1086.1 138.099 1086.21 138.063Z" fill="#F7931A"/>
</g>
<defs>
<filter id="filter0_d_375_9987" x="339" y="138" width="181.445" height="178.85" filterUnits="userSpaceOnUse" color-interpolation-filters="sRGB">
<feFlood flood-opacity="0" result="BackgroundImageFix"/>
<feColorMatrix in="SourceAlpha" type="matrix" values="0 0 0 0 0 0 0 0 0 0 0 0 0 0 0 0 0 0 127 0" result="hardAlpha"/>
<feOffset dy="24"/>
<feGaussianBlur stdDeviation="30"/>
<feComposite in2="hardAlpha" operator="out"/>
<feColorMatrix type="matrix" values="0 0 0 0 0.981858 0 0 0 0 0.668754 0 0 0 0 0.199099 0 0 0 1 0"/>
<feBlend mode="normal" in2="BackgroundImageFix" result="effect1_dropShadow_375_9987"/>
<feBlend mode="normal" in="SourceGraphic" in2="effect1_dropShadow_375_9987" result="shape"/>
</filter>
<filter id="filter1_d_375_9987" x="1295.06" y="-10.6547" width="119.412" height="112.18" filterUnits="userSpaceOnUse" color-interpolation-filters="sRGB">
<feFlood flood-opacity="0" result="BackgroundImageFix"/>
<feColorMatrix in="SourceAlpha" type="matrix" values="0 0 0 0 0 0 0 0 0 0 0 0 0 0 0 0 0 0 127 0" result="hardAlpha"/>
<feOffset dy="17.0159"/>
<feGaussianBlur stdDeviation="21.2699"/>
<feComposite in2="hardAlpha" operator="out"/>
<feColorMatrix type="matrix" values="0 0 0 0 0.345098 0 0 0 0 0.396078 0 0 0 0 0.94902 0 0 0 0.3 0"/>
<feBlend mode="normal" in2="BackgroundImageFix" result="effect1_dropShadow_375_9987"/>
<feBlend mode="normal" in="SourceGraphic" in2="effect1_dropShadow_375_9987" result="shape"/>
</filter>
<linearGradient id="paint0_linear_375_9987" x1="1650" y1="720" x2="2812" y2="665.5" gradientUnits="userSpaceOnUse">
<stop stop-color="#060B12"/>
<stop offset="1"/>
</linearGradient>
<clipPath id="clip0_375_9987">
<rect x="1440" width="871" height="1440" rx="8" transform="rotate(90 1440 0)" fill="white"/>
</clipPath>
</defs>
</svg>
