<svg width="66" height="75" viewBox="0 0 66 75" fill="none" xmlns="http://www.w3.org/2000/svg">
<path opacity="0.8" d="M65.9558 52.5276C65.9558 64.9289 55.7267 75 43.128 75H0V59.9921H43.128C47.2749 59.9921 50.6319 56.6351 50.6319 52.4882C50.6319 48.3412 47.2749 44.9842 43.128 44.9842H27.9226V30.0158H43.128C47.2749 30.0158 50.6319 26.6588 50.6319 22.5119C50.6319 18.3649 47.2749 15.0079 43.128 15.0079H0V0H43.128C55.7267 0.0394945 65.9558 10.1106 65.9558 22.5119C65.9558 28.0806 63.9021 33.4123 60.1501 37.5197C63.9021 41.6272 65.9558 46.9984 65.9558 52.5276Z" fill="white"/>
<path opacity="0.12" d="M0 59.9921H37.0458C29.1864 69.0758 16.6667 75 2.56714 75C1.69826 75 0.868878 74.9605 0.0394939 74.921C-6.03226e-07 74.9605 0 59.9921 0 59.9921ZM44.7867 44.9842H30.4502V30.0158H44.7867C45.9321 34.9526 45.9321 40.0869 44.7867 44.9842ZM37.0458 15.0079H0V0.0789877C0.829384 0.0394933 1.69826 0 2.52765 0C16.6272 0.0394945 29.1469 5.92417 37.0458 15.0079Z" fill="black"/>
<path d="M0 0.0395508C21.0111 0.0395508 38.0332 16.8247 38.0332 37.5198C38.0332 58.2149 21.0111 75.0001 0 75.0001V59.9922C12.5987 59.9922 22.8278 49.9211 22.8278 37.5198C22.8278 25.1185 12.5987 15.0475 0 15.0475V0.0395508Z" fill="white"/>
</svg>
