<svg width="67" height="75" viewBox="0 0 67 75" fill="none" xmlns="http://www.w3.org/2000/svg">
<path d="M49.2174 5.98568L49.2115 5.97971C48.1661 5.30468 47.1027 4.68341 45.9916 4.11591C45.9976 4.11591 45.9976 4.10993 46.0036 4.10396C40.7228 1.39787 34.8686 -0.00595473 28.9367 1.89853e-05L28.9307 0.0119664H18.4528H18.4468H6.76224C3.02867 0.0179401 0 3.04064 0 6.77421V18.4648V65.215V68.2378C0.00597371 71.9713 3.02867 75 6.76224 75H20.1075L20.5854 60.7885L21.4038 36.6249C19.9582 35.914 18.9307 34.0203 18.9307 31.8041C18.9307 29.313 20.233 27.2402 21.9474 26.7742C22.1804 25.2748 22.7121 23.8351 23.5125 22.5388C22.7539 22.4492 22.0788 22.0072 21.6786 21.3501C20.1254 19.0681 18.0346 16.7324 16.4277 12.9451C16.129 12.282 16.2127 11.5054 16.6428 10.92C16.9773 10.4839 17.6045 10.4003 18.0406 10.7288C18.0824 10.7647 18.1242 10.8005 18.1661 10.8423C20.6452 13.19 23.632 13.8949 25.2808 16.147C25.4002 15.8662 25.5615 15.6034 25.7527 15.3704C26.7144 14.1279 28.3871 13.6858 29.8387 14.2951C30.3943 12.4253 32.3596 11.356 34.2294 11.9116C35.3763 12.2521 36.2724 13.1482 36.6129 14.2951C37.3536 13.9606 38.2019 13.9188 38.9725 14.1816C38.9725 14.1876 38.9665 14.1936 38.9665 14.1936C39.6416 14.4086 40.2389 14.8208 40.675 15.3823C40.8662 15.6213 41.0215 15.8841 41.1469 16.1589C42.6941 14.0442 45.4122 13.5663 47.7957 11.2903C48.2736 10.7945 49.0382 10.7169 49.6057 11.1111C49.7312 11.1948 49.8387 11.2963 49.9223 11.4218C50.2389 11.828 50.3046 12.3776 50.0896 12.8495L50.0239 13.0108C48.4289 16.7204 46.3441 19.0801 44.8029 21.356C44.4026 22.0191 43.7156 22.4552 42.945 22.5448C43.7336 23.8351 44.2592 25.2748 44.4803 26.7802C46.0275 27.2043 47.2282 28.9128 47.4552 31.0693C47.4851 31.3142 47.497 31.5651 47.497 31.81C47.497 33.8949 46.583 35.693 45.2688 36.4875C45.1911 36.5412 45.1075 36.589 45.0239 36.6308V36.9893L46.1649 70.7945C58.5902 64.3489 66.3859 51.5114 66.3859 37.5149C66.3978 24.767 59.9283 12.8913 49.2174 5.98568ZM9.24731 39.4922C9.22939 39.4922 9.21744 39.5042 9.19952 39.5102C8.77539 39.6535 8.31541 39.6535 7.8853 39.5102H7.89128L6.07527 38.8889C5.35245 38.644 4.96416 37.8554 5.20908 37.1267C5.34647 36.7204 5.66905 36.3979 6.07527 36.2605L7.89128 35.6392C8.9546 35.2629 10.1195 35.8244 10.4958 36.8877C10.8722 37.951 10.3106 39.1159 9.24731 39.4922ZM13.8769 49.9104C14.6237 49.3728 15.6691 49.54 16.2127 50.2867C16.2485 50.3345 16.2784 50.3823 16.3023 50.4301C16.5352 50.8423 16.583 51.3262 16.4456 51.7742V51.7802C16.3023 52.2282 15.9677 52.5986 15.5376 52.7897L10.7885 54.9283C10.221 55.2031 9.54002 54.9582 9.26523 54.3907C9.02031 53.8829 9.1816 53.2796 9.64755 52.957L13.8769 49.9104ZM16.4456 23.9666V23.9725C16.583 24.4206 16.5352 24.9104 16.3023 25.3166C16.0633 25.7228 15.6631 26.0096 15.2091 26.1111C14.7491 26.2127 14.2652 26.1111 13.8829 25.8363L9.65352 22.7838C9.14576 22.4134 9.03226 21.7025 9.40263 21.1888C9.71923 20.7527 10.3047 20.5974 10.7945 20.8184L15.5436 22.951C15.9737 23.1482 16.3023 23.5185 16.4456 23.9666ZM49.4026 23.9725H49.4086C49.552 23.5245 49.8865 23.1541 50.3166 22.963L55.0657 20.8304C55.6392 20.5735 56.3142 20.8304 56.577 21.3979C56.7981 21.8937 56.6487 22.4731 56.2067 22.7897L51.9773 25.8423C51.2246 26.3799 50.1732 26.2007 49.6356 25.448L49.5579 25.3226C49.319 24.9164 49.2592 24.4206 49.4026 23.9725ZM56.5293 54.4564C56.2306 54.9701 55.6033 55.1732 55.0657 54.9343L50.3166 52.7957C49.4803 52.4253 49.098 51.4456 49.4743 50.6033L49.5579 50.4361C50.0119 49.6416 51.0275 49.3608 51.822 49.8148C51.822 49.8148 51.8339 49.8208 51.8399 49.8268L51.9833 49.9164L56.2126 52.963C56.6846 53.3035 56.822 53.9486 56.5293 54.4564ZM60.3644 38.9008L58.5424 39.5161C57.4671 39.8686 56.3202 39.2772 55.9677 38.2079C55.6213 37.1565 56.1828 36.0155 57.2282 35.6511C57.6523 35.5078 58.1123 35.5078 58.5424 35.6511L60.3644 36.2724C61.0872 36.5173 61.4755 37.3059 61.2306 38.0347C61.0932 38.4409 60.7706 38.7635 60.3644 38.9008Z" fill="white"/>
<path fill-rule="evenodd" clip-rule="evenodd" d="M36.6069 32.6464L34.7073 34.3907C34.546 34.5461 34.4265 34.7432 34.3728 34.9582C34.2473 35.46 34.0024 36.4457 33.8053 37.3836C33.7395 37.6464 33.5006 37.8256 33.2377 37.8197C32.9689 37.8256 32.73 37.6464 32.6702 37.3836L32.0669 34.9582C32.0131 34.7372 31.8937 34.5401 31.7324 34.3907L29.8327 32.6464C29.6117 32.4254 29.6117 32.067 29.8327 31.84C29.9582 31.7085 30.1374 31.6428 30.3166 31.6608L33.1661 32.049H33.3214L33.5424 32.0192L36.1708 31.6608C36.4098 31.6369 36.6368 31.7623 36.7383 31.9774C36.8459 32.2044 36.7921 32.4732 36.6069 32.6404M39.4564 32.0013C39.4683 30.7766 39.8088 29.5759 40.448 28.5246C40.7825 27.9511 40.8483 27.2641 40.6332 26.6369L40.5018 26.7563C39.313 27.6942 37.6344 27.7062 36.4277 26.7922C36.4277 27.957 35.3644 28.9367 33.9546 29.098C33.8112 29.11 33.6619 29.11 33.5125 29.098C31.9116 29.098 30.6033 28.0467 30.6033 26.7563C29.3966 27.6703 27.724 27.6584 26.5293 26.7205C26.368 26.5891 26.2246 26.4338 26.0992 26.2725C25.6153 26.9714 25.5615 27.8854 25.9737 28.6261C26.5293 29.6655 26.816 30.8244 26.8041 32.0013C26.8041 33.2259 26.4815 34.4326 25.8542 35.4839C25.3823 36.3083 25.4659 37.3358 26.0633 38.0705C27.7001 40.0359 30.3166 41.6787 32.8256 41.8937H33.4409C36.3381 41.8937 38.6141 40.0897 40.2389 37.7181C40.7109 37.0192 40.7467 36.1112 40.3345 35.3764C39.773 34.3429 39.4803 33.184 39.4803 32.0132" fill="white"/>
</svg>
