<svg width="15" height="15" viewBox="0 0 15 15" fill="none" xmlns="http://www.w3.org/2000/svg">
<g id="DEX">
<g id="Group 1000002027">
<path id="Vector" d="M12.248 1.65706C13.2027 2.38303 13.7523 3.16803 14.0321 4.33317C14.0505 4.39884 14.0689 4.46452 14.0878 4.53218C14.3383 5.67292 14.0022 6.81905 13.4339 7.80105C12.7749 8.81109 11.7638 9.4147 10.6064 9.72877C10.3169 9.77614 10.0616 9.78901 9.77009 9.78452C9.76639 9.84687 9.76268 9.90922 9.75887 9.97346C9.6655 11.189 9.19463 12.2021 8.29575 13.0429C7.38295 13.8145 6.27695 14.217 5.06908 14.1743C3.78854 14.0302 2.6917 13.5331 1.79091 12.6043C0.992421 11.5955 0.74869 10.2416 0.849704 8.9916C1.01941 8.23622 1.33725 7.56664 1.74174 6.91017C1.80716 6.91017 1.87258 6.91017 1.93997 6.91017C1.96246 6.85293 1.98495 6.7957 2.00812 6.73672C2.4374 6.0008 3.43184 5.5637 4.21963 5.32433C4.45636 5.2646 4.69223 5.21102 4.93202 5.1652C5.12035 5.13194 5.12035 5.13194 5.3099 5.02698C5.29457 4.86753 5.29457 4.86753 5.27893 4.70486C5.28235 3.73862 5.85087 2.83249 6.49928 2.15263C8.08625 0.639049 10.4333 0.41171 12.248 1.65706ZM7.68867 2.35086C7.68867 2.41628 7.68867 2.4817 7.68867 2.54909C7.62939 2.57541 7.5701 2.60173 7.50902 2.62885C6.91283 2.95463 6.54138 3.6175 6.30105 4.23406C6.21368 4.60538 6.19939 4.94471 6.20194 5.32433C6.28345 5.3509 6.36497 5.37748 6.44895 5.40486C7.33527 5.71599 8.14503 6.10798 8.67982 6.91017C8.74524 6.91017 8.81066 6.91017 8.87805 6.91017C8.91485 7.0083 8.91485 7.0083 8.95239 7.1084C9.05118 7.34551 9.15727 7.56808 9.27452 7.79602C9.43965 8.12074 9.56606 8.44364 9.67098 8.79337C10.6552 8.84609 11.386 8.52407 12.1489 7.90133C12.8722 7.16993 13.1591 6.27562 13.1896 5.26238C13.1567 4.18113 12.7055 3.46304 11.9944 2.67531C11.8585 2.52722 11.8585 2.52722 11.6533 2.54909C11.6533 2.48368 11.6533 2.41826 11.6533 2.35086C10.2705 1.62987 9.07085 1.69823 7.68867 2.35086ZM2.44794 7.63495C1.8467 8.46219 1.7309 9.37475 1.84086 10.3792C2.11003 11.4574 2.79593 12.2704 3.72405 12.8571C4.58058 13.3094 5.6639 13.2929 6.57362 13.012C7.50251 12.6229 8.19402 11.8971 8.58071 10.9739C8.90266 10.1355 8.89246 9.1947 8.59736 8.34541C8.16651 7.43041 7.59519 6.80416 6.66732 6.41886C5.02148 5.84307 3.54763 6.33239 2.44794 7.63495Z" fill="#A2A2A2"/>
<path id="Vector_2" d="M5.1152 6.81152C5.41012 6.82865 5.56307 6.86556 5.77959 7.07015C5.83018 7.14017 5.88078 7.21018 5.93291 7.28232C5.99091 7.36166 6.04892 7.44101 6.10868 7.52275C6.17333 7.61513 6.23798 7.7075 6.30459 7.80268C6.34308 7.85715 6.38157 7.91163 6.42122 7.96776C7.40945 9.36742 7.40945 9.36742 7.29574 10.0823C7.15651 10.3973 6.98731 10.6856 6.80017 10.9744C6.73475 10.9744 6.66933 10.9744 6.60194 10.9744C6.5774 11.0459 6.55287 11.1175 6.5276 11.1912C6.39186 11.4966 6.21935 11.7084 6.00724 11.9655C5.96227 12.0555 5.9173 12.1454 5.87096 12.2381C5.7099 12.4611 5.7099 12.4611 5.42494 12.5788C5.1152 12.5602 5.1152 12.5602 4.88677 12.3159C4.57682 11.9206 4.28809 11.5097 4.00016 11.0983C3.94649 11.0222 3.89283 10.9462 3.83754 10.8679C3.27625 10.0695 3.27625 10.0695 3.28505 9.52674C3.38411 9.01646 3.72487 8.61214 4.02493 8.19914C4.06362 8.14578 4.1023 8.09242 4.14215 8.03745C4.81992 7.10681 4.81992 7.10681 5.1152 6.81152ZM5.21432 8.19914C5.04814 8.39809 4.89838 8.59482 4.74972 8.80622C4.70723 8.86269 4.66475 8.91917 4.62098 8.97735C4.40963 9.27685 4.3201 9.44477 4.33893 9.81519C4.41145 10.0759 4.41145 10.0759 4.52051 10.2806C4.58593 10.2806 4.65134 10.2806 4.71874 10.2806C4.74532 10.3542 4.77189 10.4278 4.79927 10.5036C4.91125 10.7629 5.0368 10.9547 5.21432 11.1726C5.61331 11.0396 5.69829 10.8334 5.90813 10.4788C5.90813 10.4134 5.90813 10.348 5.90813 10.2806C5.97354 10.2806 6.03896 10.2806 6.10636 10.2806C6.26718 10.0346 6.30608 9.90536 6.28523 9.60844C6.1922 9.23632 6.04453 9.01314 5.81521 8.70711C5.74481 8.61128 5.67441 8.51546 5.60188 8.41673C5.50816 8.30902 5.50816 8.30902 5.41255 8.19914C5.34713 8.19914 5.28172 8.19914 5.21432 8.19914Z" fill="#A2A2A2"/>
<path id="Vector_3" d="M13.297 9.21007C13.5386 9.2906 13.5386 9.2906 13.7368 9.48883C13.7847 9.83561 13.7735 10.186 13.774 10.5357C13.7764 10.6314 13.7788 10.727 13.7813 10.8255C13.7843 11.5526 13.6684 12.1868 13.1771 12.7478C12.6797 13.2309 12.1353 13.3613 11.4571 13.3667C11.359 13.3626 11.2609 13.3585 11.1598 13.3543C11.2252 13.4525 11.2906 13.5506 11.358 13.6517C11.3044 14.1017 11.3044 14.1017 11.1598 14.2464C10.8452 14.2988 10.6429 14.297 10.3715 14.1205C10.1927 13.9711 10.0249 13.8271 9.87129 13.6517C9.87129 13.5863 9.87129 13.5209 9.87129 13.4535C9.80792 13.431 9.74455 13.4085 9.67926 13.3853C9.47483 13.2552 9.47483 13.2552 9.3943 13.0136C9.37572 12.7596 9.37572 12.7596 9.47483 12.4623C9.61775 12.3389 9.76127 12.216 9.90962 12.0991C10.0938 11.9524 10.0938 11.9524 10.3235 11.6942C10.5825 11.4551 10.7092 11.372 11.0607 11.372C11.2465 11.4835 11.2465 11.4835 11.358 11.6694C11.3322 11.9345 11.2787 12.1254 11.1598 12.3632C11.3002 12.3491 11.4406 12.3345 11.581 12.3198C11.6592 12.3118 11.7374 12.3037 11.818 12.2954C11.8952 12.2851 11.9723 12.2747 12.0518 12.2641C12.1229 12.2588 12.1939 12.2536 12.2671 12.2482C12.4735 12.176 12.4735 12.176 12.5695 11.9276C12.691 11.364 12.6858 10.8007 12.694 10.2258C12.6966 10.1355 12.6992 10.0453 12.7019 9.95228C12.7032 9.87042 12.7046 9.78856 12.7059 9.70422C12.7734 9.33848 12.924 9.18278 13.297 9.21007Z" fill="#A2A2A2"/>
<path id="Vector_4" d="M4.08393 0.722656C4.56224 0.784659 4.78226 1.02536 5.11225 1.36071C5.16426 1.41054 5.21626 1.46037 5.26983 1.51171C5.51751 1.77105 5.60783 1.90853 5.60783 2.27134C5.51002 2.54644 5.44629 2.6783 5.21137 2.84744C5.14595 2.84744 5.08054 2.84744 5.01314 2.84744C5.01314 2.91286 5.01314 2.97828 5.01314 3.04567C4.808 3.27919 4.58178 3.4739 4.31933 3.64037C4.02818 3.62798 4.02818 3.62798 3.82375 3.54125C3.71225 3.26249 3.71225 3.26249 3.62552 2.94656C3.69094 2.84843 3.75636 2.75031 3.82375 2.64921C3.64802 2.67457 3.47254 2.70177 3.2972 2.72974C3.19946 2.74469 3.10172 2.75964 3.00102 2.77504C2.71601 2.85217 2.61078 2.91137 2.43614 3.14479C2.33908 3.43595 2.32209 3.63727 2.31612 3.9412C2.3133 4.03773 2.31049 4.13425 2.3076 4.2337C2.30243 4.43734 2.29804 4.64099 2.29443 4.84466C2.29137 4.94106 2.2883 5.03746 2.28514 5.13678C2.28318 5.2252 2.28121 5.31362 2.27919 5.40472C2.26557 5.47665 2.25194 5.54857 2.23791 5.62268C1.94056 5.82091 1.94056 5.82091 1.68658 5.79613C1.44498 5.72179 1.44498 5.72179 1.24675 5.52356C1.20187 5.2098 1.21464 4.89236 1.21578 4.57577C1.21418 4.48959 1.21258 4.40341 1.21094 4.31462C1.21038 3.56834 1.3496 2.95239 1.75472 2.32089C2.24901 1.85884 2.75337 1.63542 3.43349 1.63328C3.56228 1.64146 3.69106 1.64963 3.82375 1.65806C3.79105 1.59264 3.75834 1.52723 3.72464 1.45983C3.71225 1.15629 3.71225 1.15629 3.72464 0.865135C3.82375 0.766019 3.82375 0.766019 4.08393 0.722656Z" fill="#A2A2A2"/>
<path id="Vector_5" d="M10.2638 2.65039C10.4992 2.68136 10.4992 2.68136 10.7594 2.74951C10.9783 3.07795 10.9799 3.18012 10.97 3.56101C10.9682 3.65032 10.9664 3.73963 10.9646 3.83165C10.9611 3.93379 10.9611 3.93379 10.9576 4.03801C11.0328 4.03456 11.1081 4.03111 11.1856 4.02755C11.3334 4.02353 11.3334 4.02353 11.4841 4.01942C11.5819 4.01597 11.6796 4.01252 11.7803 4.00897C12.0479 4.03801 12.0479 4.03801 12.2329 4.17197C12.3452 4.33535 12.3452 4.33535 12.3266 4.58934C12.2461 4.83093 12.2461 4.83093 12.0479 5.02916C11.7546 5.07313 11.4582 5.06129 11.162 5.06014C11.0803 5.06173 10.9986 5.06333 10.9144 5.06497C10.8358 5.06504 10.7571 5.0651 10.6761 5.06517C10.6042 5.06546 10.5323 5.06576 10.4582 5.06606C10.2053 5.01806 10.1187 4.93691 9.96643 4.73182C9.93673 4.46218 9.9249 4.2203 9.92927 3.95128C9.92812 3.88114 9.92697 3.81099 9.92578 3.73872C9.92828 3.29174 9.99726 3.00999 10.2638 2.65039Z" fill="#A2A2A2"/>
<path id="Vector_6" d="M11.16 5.57967C11.2819 5.57862 11.2819 5.57862 11.4063 5.57754C12.0017 5.58386 12.0017 5.58386 12.2251 5.75774C12.3954 5.98049 12.3715 6.14311 12.3494 6.41596C12.0459 6.59279 11.832 6.63686 11.4822 6.62658C11.4029 6.62479 11.3237 6.623 11.2421 6.62116C11.1823 6.61886 11.1225 6.61656 11.0609 6.61419C11.0584 6.68114 11.0558 6.74809 11.0532 6.81706C11.0067 7.54822 11.0067 7.54822 10.7574 7.86552C10.6623 7.93298 10.6623 7.93298 10.5653 8.0018C10.0821 7.81596 10.0821 7.81596 9.97064 7.70446C9.95539 7.42848 9.94768 7.15666 9.94586 6.88056C9.94382 6.80396 9.94178 6.72737 9.93967 6.64845C9.93745 6.32638 9.95039 6.07296 10.0651 5.77016C10.4018 5.52603 10.7559 5.56982 11.16 5.57967Z" fill="#A2A2A2"/>
<path id="Vector_7" d="M8.68301 2.65039C8.9308 2.65659 8.9308 2.65659 9.17859 2.74951C9.39478 3.14869 9.40063 3.5033 9.3954 3.95128C9.39476 4.07215 9.39412 4.19301 9.39347 4.31754C9.37682 4.6327 9.37682 4.6327 9.2777 4.93005C8.94002 5.09889 8.56579 5.05162 8.19363 5.05394C8.11192 5.05598 8.03021 5.05803 7.94603 5.06014C7.86739 5.06065 7.78875 5.06116 7.70773 5.06168C7.59984 5.06307 7.59984 5.06307 7.48978 5.06449C7.23886 5.01889 7.14944 4.93391 6.99805 4.73182C7.02228 4.40058 7.05805 4.27535 7.29539 4.03801C7.57493 4.01865 7.57493 4.01865 7.90248 4.02562C8.01108 4.02741 8.11968 4.02919 8.23157 4.03104C8.31513 4.03334 8.39869 4.03564 8.48478 4.03801C8.48248 3.95445 8.48018 3.87089 8.47781 3.7848C8.47602 3.6762 8.47423 3.5676 8.47239 3.4557C8.47009 3.34761 8.46779 3.23952 8.46542 3.12816C8.48478 2.84862 8.48478 2.84862 8.68301 2.65039Z" fill="#A2A2A2"/>
<path id="Vector_8" d="M12.8418 9.58887C12.8745 9.58887 12.9072 9.58887 12.9409 9.58887C12.9525 9.92335 12.9595 10.2578 12.9657 10.5924C12.969 10.6867 12.9723 10.781 12.9757 10.8781C12.984 11.4749 12.9363 11.8068 12.5444 12.265C12.5117 12.1669 12.479 12.0687 12.4453 11.9676C12.4748 11.9136 12.5043 11.8595 12.5347 11.8039C12.6985 11.4535 12.6861 11.105 12.6993 10.7225C12.7309 9.92147 12.7309 9.92147 12.8418 9.58887Z" fill="#A2A2A2"/>
</g>
</g>
</svg>
