<svg width="11" height="10" viewBox="0 0 11 10" fill="none" xmlns="http://www.w3.org/2000/svg">
<path d="M5.5 0.3125C2.9112 0.3125 0.8125 2.4112 0.8125 5C0.8125 7.5888 2.9112 9.6875 5.5 9.6875C8.0888 9.6875 10.1875 7.5888 10.1875 5" stroke="#888888" stroke-width="0.625" stroke-linecap="round" stroke-linejoin="round"/>
<path d="M5.5 2.65625C5.03645 2.65625 4.58331 2.79371 4.19788 3.05124C3.81246 3.30878 3.51205 3.67482 3.33466 4.10309C3.15727 4.53135 3.11085 5.0026 3.20129 5.45724C3.29172 5.91189 3.51494 6.3295 3.84272 6.65728C4.1705 6.98506 4.58811 7.20828 5.04276 7.29872C5.4974 7.38915 5.96865 7.34274 6.39692 7.16534C6.82518 6.98795 7.19122 6.68755 7.44876 6.30212C7.70629 5.91669 7.84375 5.46355 7.84375 5M5.5 5L7.14063 3.35781" stroke="#888888" stroke-width="0.625" stroke-linecap="round" stroke-linejoin="round"/>
<path d="M7.14062 1.72552V3.35938H8.78776L10.1875 1.95312H8.54766V0.3125L7.14062 1.72552Z" fill="#888888" stroke="#888888" stroke-width="0.625" stroke-linejoin="round"/>
</svg>
