<svg width="14" height="15" viewBox="0 0 14 15" fill="none" xmlns="http://www.w3.org/2000/svg">
<path d="M0.225587 10.7216C0.0751956 9.63073 0 8.54603 0 7.46753C0 6.38917 0.0751753 5.30462 0.225526 4.21388C0.258998 3.97106 0.384897 3.75093 0.576534 3.60016C1.4325 2.92673 2.32599 2.3189 3.25702 1.77664C4.18831 1.23424 5.15715 0.757464 6.16354 0.346303C6.38842 0.25443 6.63989 0.254355 6.86482 0.346092C7.86577 0.754326 8.83452 1.23118 9.77107 1.77664C10.7075 2.32204 11.6011 2.92985 12.452 3.60009C12.6433 3.75085 12.7691 3.97082 12.8025 4.21344C12.9529 5.30433 13.0281 6.38903 13.0281 7.46753C13.0281 8.54589 12.9529 9.63044 12.8026 10.7212C12.7691 10.964 12.6432 11.1841 12.4516 11.3349C11.5956 12.0083 10.7021 12.6162 9.77107 13.1584C8.83979 13.7008 7.87095 14.1776 6.86455 14.5888C6.63968 14.6806 6.3882 14.6807 6.16327 14.589C5.16232 14.1807 4.19357 13.7039 3.25702 13.1584C2.3206 12.613 1.42697 12.0052 0.57614 11.335C0.384756 11.1842 0.259035 10.9642 0.225587 10.7216Z" fill="#82C43C"/>
<mask id="mask0_410_4154" style="mask-type:alpha" maskUnits="userSpaceOnUse" x="0" y="0" width="14" height="15">
<path d="M0.225587 10.7216C0.0751956 9.63073 0 8.54603 0 7.46753C0 6.38917 0.0751753 5.30462 0.225526 4.21388C0.258998 3.97106 0.384897 3.75093 0.576534 3.60016C1.4325 2.92673 2.32599 2.3189 3.25702 1.77664C4.18831 1.23424 5.15715 0.757464 6.16354 0.346303C6.38842 0.25443 6.63989 0.254355 6.86482 0.346092C7.86577 0.754326 8.83452 1.23118 9.77107 1.77664C10.7075 2.32204 11.6011 2.92985 12.452 3.60009C12.6433 3.75085 12.7691 3.97082 12.8025 4.21344C12.9529 5.30433 13.0281 6.38903 13.0281 7.46753C13.0281 8.54589 12.9529 9.63044 12.8026 10.7212C12.7691 10.964 12.6432 11.1841 12.4516 11.3349C11.5956 12.0083 10.7021 12.6162 9.77107 13.1584C8.83979 13.7008 7.87095 14.1776 6.86455 14.5888C6.63968 14.6806 6.3882 14.6807 6.16327 14.589C5.16232 14.1807 4.19357 13.7039 3.25702 13.1584C2.3206 12.613 1.42697 12.0052 0.57614 11.335C0.384756 11.1842 0.259035 10.9642 0.225587 10.7216Z" fill="white"/>
</mask>
<g mask="url(#mask0_410_4154)">
</g>
<g clip-path="url(#clip0_410_4154)">
<path d="M6.07812 7.63184L6.55196 11.9249L8.90059 12.9084C9.13559 13.0068 9.395 12.8341 9.395 12.5794V7.63184H6.07812Z" fill="#F1543F"/>
<path d="M3.70898 7.63184V12.5791C3.70898 12.8339 3.96853 13.0065 4.20355 12.908L6.55202 11.9233V7.63184H3.70898Z" fill="#FF7058"/>
<path d="M5.8418 5.84375L10.6986 6.32058C10.6986 8.62104 8.83859 10.4928 6.55256 10.4928L5.8418 5.84375Z" fill="#FFD15C"/>
<path d="M10.6986 6.3207H5.8418L6.55256 2.14844C8.83859 2.14844 10.6986 4.02023 10.6986 6.3207Z" fill="#FFD15C"/>
<path d="M6.55234 6.32071V10.493C4.2663 10.493 2.40625 8.62118 2.40625 6.32071L4.4793 5.60547L6.55234 6.32071Z" fill="#FFD15C"/>
<path d="M6.55234 2.14844V6.3207H2.40625C2.40625 4.02023 4.2663 2.14844 6.55234 2.14844Z" fill="#FFD15C"/>
<path d="M6.55134 3.34082C4.91825 3.34082 3.58984 4.67761 3.58984 6.321L6.55134 8.82436C8.731 8.82436 9.51283 6.321 9.51283 6.321C9.51283 4.67761 8.18442 3.34082 6.55134 3.34082Z" fill="white"/>
<path d="M8.80207 6.3206C8.80207 7.56942 7.79232 8.58554 6.55134 8.58554V4.05566C5.31035 4.05566 4.3006 5.07179 4.3006 6.3206H3.58984C3.58984 7.964 4.91825 9.30079 6.55134 9.30079C8.18442 9.30079 9.51283 7.964 9.51283 6.3206H8.80207Z" fill="white"/>
<path fill-rule="evenodd" clip-rule="evenodd" d="M6.55465 9.37101C8.25355 9.37101 9.63078 7.99378 9.63078 6.29488C9.63078 4.59598 8.25355 3.21875 6.55465 3.21875C4.85575 3.21875 3.47852 4.59598 3.47852 6.29488C3.47852 7.99378 4.85575 9.37101 6.55465 9.37101Z" fill="#F8B64C"/>
</g>
<defs>
<clipPath id="clip0_410_4154">
<rect width="8.30556" height="11.1944" fill="white" transform="translate(2.4082 2.14941)"/>
</clipPath>
</defs>
</svg>
