<svg width="104" height="86" viewBox="0 0 104 86" fill="none" xmlns="http://www.w3.org/2000/svg">
<path d="M35.4069 25.8475C35.8439 25.9744 36.3063 25.9504 36.7302 25.7788C37.1542 25.6072 37.5189 25.2964 37.774 24.8894C38.03 24.4698 38.1651 23.977 38.1599 23.4724L38.0438 20.1741C38.0193 19.3451 38.1723 18.5214 38.4906 17.7681C38.8089 17.0148 39.2838 16.3527 39.8777 15.8342L42.2886 13.7695C42.6393 13.4472 42.8884 13.0131 43.0008 12.5284C43.1132 12.0436 43.0832 11.5327 42.9151 11.0675C42.7469 10.6023 42.4491 10.2063 42.0636 9.9354C41.6781 9.66447 41.2243 9.53221 40.7662 9.55728L37.7355 9.68323C36.9747 9.71054 36.2186 9.54416 35.5271 9.1973C34.8356 8.85044 34.2279 8.33265 33.752 7.68504L31.856 5.06516C31.5645 4.68408 31.1713 4.41151 30.731 4.28538C30.2908 4.15924 29.8254 4.18581 29.3996 4.36139C28.9739 4.53696 28.6089 4.85281 28.3555 5.265C28.1021 5.67719 27.9729 6.16522 27.9858 6.66119L28.1018 10.0253C28.1195 10.8344 27.9683 11.6372 27.6595 12.3732C27.3508 13.1092 26.8926 13.7591 26.3196 14.2737L23.9085 16.3313C23.5592 16.6493 23.3093 17.078 23.1937 17.5578C23.0781 18.0376 23.1023 18.5448 23.2632 19.0089C23.424 19.473 23.7134 19.871 24.0913 20.1477C24.4691 20.4243 24.9165 20.5659 25.3715 20.5527L28.398 20.4211C29.1623 20.3944 29.9216 20.5634 30.6151 20.9143C31.3086 21.2653 31.917 21.7886 32.3915 22.4421L34.2897 25.0684C34.5793 25.4491 34.9706 25.7207 35.4069 25.8475Z" fill="#FFEC3D"/>
<path opacity="0.9" d="M81.4466 12.6477C81.5299 12.8212 81.6606 12.9623 81.8206 13.0515C81.9806 13.1406 82.162 13.1735 82.3399 13.1455C82.5213 13.1145 82.69 13.0252 82.8241 12.888L83.6787 11.9648C83.8948 11.7342 84.1571 11.5617 84.4449 11.4609C84.7327 11.3601 85.0382 11.3337 85.337 11.3839L86.5392 11.5985C86.72 11.6238 86.9035 11.5866 87.0639 11.4923C87.2242 11.3979 87.3534 11.251 87.4332 11.0724C87.5129 10.8938 87.5392 10.6924 87.5084 10.4966C87.4776 10.3008 87.3912 10.1204 87.2614 9.981L86.4133 9.04783C86.2016 8.81242 86.0431 8.52645 85.9505 8.21263C85.8579 7.8988 85.8336 7.56576 85.8797 7.23994L86.0739 5.93108C86.0979 5.73568 86.0655 5.53698 85.9811 5.36261C85.8967 5.18825 85.7645 5.0469 85.6029 4.95823C85.4414 4.86955 85.2585 4.83796 85.0797 4.86785C84.901 4.89774 84.7352 4.98763 84.6055 5.125L83.7331 6.06585C83.5206 6.28887 83.2644 6.45632 82.9838 6.55555C82.7032 6.65478 82.4055 6.68319 82.1134 6.63864L80.913 6.4221C80.7337 6.39608 80.5515 6.43154 80.3916 6.52355C80.2316 6.61557 80.1019 6.75958 80.0205 6.9356C79.9391 7.11161 79.91 7.31089 79.9372 7.50576C79.9644 7.70064 80.0466 7.88145 80.1724 8.02309L81.0208 8.95342C81.2333 9.1901 81.392 9.47776 81.484 9.79334C81.5761 10.1089 81.599 10.4436 81.551 10.7706L81.3557 12.0819C81.3313 12.2766 81.3635 12.4744 81.4466 12.6477Z" fill="#FFF06C"/>
<path d="M98.0855 80.2308C98.3724 80.1388 98.6261 79.952 98.8115 79.6962C98.997 79.4404 99.105 79.1282 99.1208 78.8026C99.1332 78.4697 99.0542 78.1406 98.8921 77.8574L97.7865 76.0373C97.5113 75.5781 97.338 75.0554 97.2804 74.5105C97.2227 73.9656 97.2823 73.4136 97.4543 72.8981L98.1655 70.8283C98.2621 70.5149 98.266 70.1763 98.1766 69.8603C98.0873 69.5443 97.9092 69.2668 97.6675 69.067C97.4259 68.8671 97.1327 68.755 96.8295 68.7463C96.5262 68.7376 96.2281 68.8329 95.9772 69.0187L94.3045 70.2252C93.8833 70.5256 93.4036 70.7149 92.9035 70.7779C92.4034 70.841 91.8967 70.7761 91.4237 70.5884L89.5263 69.8184C89.2415 69.7123 88.9333 69.7056 88.6448 69.7993C88.3563 69.8929 88.1017 70.0823 87.9165 70.341C87.7313 70.5997 87.6247 70.9149 87.6115 71.2427C87.5983 71.5705 87.6791 71.8947 87.8428 72.1701L88.9691 74.0274C89.2342 74.4779 89.4019 74.9882 89.4595 75.5197C89.5171 76.0513 89.4631 76.5901 89.3017 77.0955L88.5881 79.1613C88.491 79.4719 88.485 79.8077 88.5709 80.1221C88.6569 80.4366 88.8305 80.714 89.0677 80.916C89.3049 81.118 89.594 81.2344 89.8947 81.2492C90.1954 81.264 90.4928 81.1764 90.7458 80.9985L92.4143 79.7903C92.8377 79.489 93.32 79.3 93.8225 79.2385C94.325 79.177 94.8338 79.2447 95.3079 79.4362L97.2086 80.2091C97.4922 80.3157 97.799 80.3225 98.0855 80.2308Z" fill="#FFF06C"/>
<path opacity="0.9" d="M7.10502 57.3205C7.19998 57.2283 7.26636 57.1063 7.295 56.9712C7.32363 56.8361 7.31312 56.6947 7.2649 56.5664C7.21413 56.436 7.12888 56.3251 7.01936 56.2484L6.29085 55.7677C6.10848 55.6457 5.9547 55.4791 5.84168 55.281C5.72865 55.083 5.65951 54.859 5.63971 54.6268L5.56798 53.6902C5.55282 53.5506 5.49785 53.4196 5.41081 53.3159C5.32378 53.2121 5.20906 53.1407 5.08283 53.1117C4.9566 53.0828 4.82522 53.0978 4.7072 53.1545C4.58918 53.2112 4.49047 53.3069 4.42498 53.4281L3.98314 54.2232C3.8713 54.4222 3.71845 54.59 3.53673 54.7133C3.35501 54.8366 3.14941 54.912 2.93627 54.9336L2.07849 55.0135C1.95128 55.0291 1.83171 55.0876 1.73642 55.1808C1.64112 55.2739 1.57483 55.3971 1.54677 55.5333C1.51872 55.6694 1.53028 55.8117 1.57987 55.9404C1.62946 56.069 1.71459 56.1776 1.82344 56.251L2.56611 56.7419C2.74314 56.8626 2.89269 57.0255 3.00347 57.2184C3.11425 57.4113 3.18335 57.6292 3.20556 57.8555L3.2757 58.791C3.29015 58.9296 3.34384 59.0599 3.42932 59.1637C3.51479 59.2676 3.62781 59.3398 3.75268 59.3705C3.87755 59.4011 4.00807 59.3886 4.12613 59.3347C4.24419 59.2809 4.34393 59.1882 4.4115 59.0697L4.85148 58.2747C4.96398 58.075 5.11787 57.9068 5.3008 57.7836C5.48372 57.6604 5.69059 57.5857 5.9048 57.5654L6.76431 57.4859C6.89113 57.4707 7.01019 57.4126 7.10502 57.3205Z" fill="#FFF06C"/>
<g clip-path="url(#clip0_4571_1892)">
<path d="M51.6367 24.3831C36.1727 24.3831 23.6367 36.9191 23.6367 52.3831V52.4251C23.6367 67.8891 36.1307 80.3831 51.5947 80.3831H51.6367C67.1007 80.3831 79.6367 67.8891 79.6367 52.4251V52.3831C79.6367 36.9191 67.1427 24.3831 51.6787 24.3831H51.6367Z" fill="#15803D"/>
<mask id="mask0_4571_1892" style="mask-type:luminance" maskUnits="userSpaceOnUse" x="39" y="40" width="25" height="25">
<path d="M39.6367 40.3831H63.6367V64.3831H39.6367V40.3831Z" fill="white"/>
</mask>
<g mask="url(#mask0_4571_1892)">
<path d="M47.7882 60.9802L39.9882 53.1802C39.5196 52.7115 39.5196 51.9518 39.9882 51.4831L41.6852 49.786C42.1538 49.3174 42.9136 49.3174 43.3822 49.786L48.6367 55.0405L59.8911 43.786C60.3598 43.3174 61.1196 43.3174 61.5882 43.786L63.2852 45.4831C63.7538 45.9517 63.7538 46.7115 63.2852 47.1802L49.4852 60.9802C49.0166 61.4488 48.2568 61.4488 47.7882 60.9802Z" fill="white"/>
</g>
</g>
<defs>
<clipPath id="clip0_4571_1892">
<rect width="56" height="56" fill="white" transform="translate(23.6367 24.3831)"/>
</clipPath>
</defs>
</svg>
