<svg width="50" height="50" viewBox="0 0 50 50" fill="none" xmlns="http://www.w3.org/2000/svg">
<g clip-path="url(#clip0_9_1180)">
<path d="M48.7367 29.5157C48.7367 28.3059 48.3268 27.19 47.6386 26.2995C49.0604 25.355 49.9994 23.739 49.9994 21.9078C49.9994 19.0026 47.6359 16.6391 44.7308 16.6391H28.5992L32.3092 7.23456C33.3909 4.54052 32.081 1.46836 29.3877 0.384119C28.0822 -0.141547 26.6501 -0.127192 25.3553 0.424156C24.0605 0.975602 23.0581 1.99832 22.5324 3.30384C20.2122 9.06711 14.8263 15.0139 13.2913 16.6391H1.46589C0.656935 16.6391 0.00109863 17.295 0.00109863 18.1039V48.5353C0.00109863 49.3442 0.656935 50 1.46589 50H40.9425C43.8477 50 46.2112 47.6366 46.2112 44.7314C46.2112 43.5215 45.8013 42.4057 45.1131 41.5152C46.5349 40.5706 47.4739 38.9546 47.4739 37.1235C47.4739 35.9135 47.0641 34.7978 46.3758 33.9073C47.7976 32.9629 48.7367 31.3469 48.7367 29.5157ZM2.93068 19.5688H12.4503V47.0706H2.93068V19.5688ZM44.7307 24.247H43.4679C42.659 24.247 42.0031 24.9029 42.0031 25.7118C42.0031 26.5208 42.659 27.1766 43.4679 27.1766C44.7577 27.1766 45.807 28.2259 45.807 29.5157C45.807 30.8055 44.7577 31.8548 43.4679 31.8548H42.2052C41.3962 31.8548 40.7404 32.5106 40.7404 33.3196C40.7404 34.1285 41.3962 34.7844 42.2052 34.7844C43.495 34.7844 44.5443 35.8338 44.5443 37.1236C44.5443 38.4133 43.495 39.4626 42.2052 39.4626H40.9424C40.1335 39.4626 39.4776 40.1185 39.4776 40.9274C39.4776 41.7364 40.1335 42.3922 40.9424 42.3922C42.2322 42.3922 43.2815 43.4416 43.2815 44.7314C43.2815 46.0212 42.2322 47.0705 40.9424 47.0705H15.38V18.6969C16.9974 16.9981 22.6947 10.7451 25.2501 4.39794C25.4834 3.81837 25.9285 3.36438 26.5033 3.11947C27.0783 2.87466 27.714 2.86841 28.2936 3.1017C29.49 3.58332 30.0714 4.94861 29.5897 6.14515C29.5884 6.14827 29.5873 6.1514 29.586 6.15462L25.0841 17.5663C24.9062 18.0174 24.9629 18.5271 25.2357 18.9279C25.5085 19.3287 25.9619 19.5687 26.4467 19.5687H44.7306C46.0204 19.5687 47.0697 20.618 47.0697 21.9078C47.0697 23.1976 46.0205 24.247 44.7307 24.247Z" fill="#CAFC01"/>
<path d="M7.69076 39.7761C6.92457 39.7761 6.19052 40.4498 6.22597 41.2409C6.26151 42.0345 6.86959 42.7057 7.69076 42.7057C8.45694 42.7057 9.191 42.032 9.15555 41.2409C9.12 40.4473 8.51202 39.7761 7.69076 39.7761Z" fill="#CAFC01"/>
</g>
<defs>
<clipPath id="clip0_9_1180">
<rect width="50" height="50" fill="white"/>
</clipPath>
</defs>
</svg>
