<svg xmlns="http://www.w3.org/2000/svg" width="13" height="13" viewBox="0 0 13 13" fill="none">
  <path d="M11.6792 5.81755L10.9425 4.96172C10.8017 4.79922 10.688 4.49589 10.688 4.27922V3.35839C10.688 2.78422 10.2167 2.31297 9.64254 2.31297H8.72171C8.51046 2.31297 8.20171 2.19922 8.03921 2.05839L7.18337 1.32172C6.80962 1.00214 6.19754 1.00214 5.81837 1.32172L4.96796 2.0638C4.80546 2.19922 4.49671 2.31297 4.28546 2.31297H3.34837C2.77421 2.31297 2.30296 2.78422 2.30296 3.35839V4.28464C2.30296 4.49589 2.18921 4.79922 2.05379 4.96172L1.32254 5.82297C1.00837 6.19672 1.00837 6.80339 1.32254 7.17714L2.05379 8.03839C2.18921 8.20089 2.30296 8.50422 2.30296 8.71547V9.64172C2.30296 10.2159 2.77421 10.6871 3.34837 10.6871H4.28546C4.49671 10.6871 4.80546 10.8009 4.96796 10.9417L5.82379 11.6784C6.19754 11.998 6.80962 11.998 7.18879 11.6784L8.04462 10.9417C8.20712 10.8009 8.51046 10.6871 8.72712 10.6871H9.64796C10.2221 10.6871 10.6934 10.2159 10.6934 9.64172V8.72089C10.6934 8.50964 10.8071 8.20089 10.948 8.03839L11.6846 7.18255C11.9988 6.8088 11.9988 6.1913 11.6792 5.81755ZM8.75421 5.4763L6.13796 8.09255C6.06212 8.16839 5.95921 8.21172 5.85087 8.21172C5.74254 8.21172 5.63962 8.16839 5.56379 8.09255L4.25296 6.78172C4.09587 6.62464 4.09587 6.36464 4.25296 6.20755C4.41004 6.05047 4.67004 6.05047 4.82712 6.20755L5.85087 7.2313L8.18004 4.90214C8.33712 4.74505 8.59712 4.74505 8.75421 4.90214C8.91129 5.05922 8.91129 5.31922 8.75421 5.4763Z" fill="#09A7F8"/>
</svg>