<svg width="13" height="13" viewBox="0 0 13 13" fill="none" xmlns="http://www.w3.org/2000/svg">
<g id="vuesax/bold/verify">
<g id="verify">
<path id="Vector" d="M11.6787 5.81755L10.9421 4.96172C10.8012 4.79922 10.6875 4.49589 10.6875 4.27922V3.35839C10.6875 2.78422 10.2162 2.31297 9.64205 2.31297H8.72122C8.50997 2.31297 8.20122 2.19922 8.03872 2.05839L7.18288 1.32172C6.80913 1.00214 6.19705 1.00214 5.81788 1.32172L4.96747 2.0638C4.80497 2.19922 4.49622 2.31297 4.28497 2.31297H3.34788C2.77372 2.31297 2.30247 2.78422 2.30247 3.35839V4.28464C2.30247 4.49589 2.18872 4.79922 2.0533 4.96172L1.32205 5.82297C1.00788 6.19672 1.00788 6.80339 1.32205 7.17714L2.0533 8.03839C2.18872 8.20089 2.30247 8.50422 2.30247 8.71547V9.64172C2.30247 10.2159 2.77372 10.6871 3.34788 10.6871H4.28497C4.49622 10.6871 4.80497 10.8009 4.96747 10.9417L5.8233 11.6784C6.19705 11.998 6.80913 11.998 7.1883 11.6784L8.04413 10.9417C8.20663 10.8009 8.50997 10.6871 8.72663 10.6871H9.64747C10.2216 10.6871 10.6929 10.2159 10.6929 9.64172V8.72089C10.6929 8.50964 10.8066 8.20089 10.9475 8.03839L11.6841 7.18255C11.9983 6.8088 11.9983 6.1913 11.6787 5.81755ZM8.75372 5.4763L6.13747 8.09255C6.06163 8.16839 5.95872 8.21172 5.85038 8.21172C5.74205 8.21172 5.63913 8.16839 5.5633 8.09255L4.25247 6.78172C4.09538 6.62464 4.09538 6.36464 4.25247 6.20755C4.40955 6.05047 4.66955 6.05047 4.82663 6.20755L5.85038 7.2313L8.17955 4.90214C8.33663 4.74505 8.59663 4.74505 8.75372 4.90214C8.9108 5.05922 8.9108 5.31922 8.75372 5.4763Z" fill="#17BD02"/>
</g>
</g>
</svg>
