<svg width="50" height="41" viewBox="0 0 50 41" fill="none" xmlns="http://www.w3.org/2000/svg">
<path fill-rule="evenodd" clip-rule="evenodd" d="M37.4532 22.3394L38.4092 22.9372C38.4768 22.9562 39.6821 23.6436 39.6821 23.6436C43.4656 25.1732 45.3943 22.2002 47.5716 20.4178L48.4428 16.8184C48.108 16.7821 47.7786 16.6506 47.7892 16.8275L45.0985 16.5138C43.8434 15.7352 43.6479 15.0619 43.7093 13.4949C44.1641 12.3865 44.3584 12.1128 44.7436 11.1393C45.2485 9.75523 44.5319 10.7512 45.3786 9.5214L47.6893 11.0805C48.5739 11.9672 48.0185 11.5789 49.3989 11.1177C47.509 8.80778 46.124 7.89593 43.3336 7.39962C43.2107 7.38433 43.0077 7.32714 42.8848 7.31184C40.7657 7.10124 38.3769 8.12848 36.469 9.04003C32.0793 11.6482 34.344 12.8078 34.8842 14.7955C35.9202 18.5844 34.5672 17.8361 37.4532 22.3394Z" fill="#7E252E"/>
<path fill-rule="evenodd" clip-rule="evenodd" d="M1.50639 20.5778C2.80546 22.2769 1.3314 21.3593 2.8557 21.6342L5.68041 18.2567L5.42985 20.3694L6.78995 21.2356C8.62766 21.5601 8.19094 22.2292 8.50868 24.0189C7.32515 25.7335 6.76952 25.7122 5.00071 26.3538L6.94193 29.3351C9.66113 29.7534 8.86825 30.3994 11.4399 30.3897C14.4781 30.3956 14.443 29.439 16.6436 27.4893C17.2628 25.4225 17.844 24.3884 17.3075 22.0926C16.9557 20.6604 16.3472 19.7548 16.1091 18.741C15.6062 16.8219 16.2441 16.364 16.1235 15.4606C14.6602 14.3528 14.6586 14.1398 13.0328 13.8363C6.92936 14.3001 5.41126 15.6113 1.50639 20.5778Z" fill="#7E252E"/>
<path fill-rule="evenodd" clip-rule="evenodd" d="M32.7596 34.1546C32.7616 36.7828 32.8324 37.5949 31.2889 39.5944C28.8639 38.718 28.6843 38.1265 27.0121 35.0085L25.7004 30.5043L31.6819 28.5571C33.0094 30.3609 32.9228 32.2492 32.7596 34.1546ZM31.3398 40.9998C34.8477 38.665 35.105 31.1058 32.6196 26.812C29.6951 27.2246 26.5336 27.9375 24.1176 29.8072C25.0905 34.9501 26.9593 40.0556 31.3398 40.9998Z" fill="#964649"/>
<path fill-rule="evenodd" clip-rule="evenodd" d="M0.00310058 10.9934C1.31879 11.6732 -1.63103 12.7743 3.75243 10.0983C9.42627 7.27237 12.2206 10.2428 15.815 9.16885C14.2117 7.01693 14.6034 7.26252 12.2493 6.83116C8.40117 6.07551 1.29128 6.95126 0.00310058 10.9934Z" fill="#693638"/>
<path fill-rule="evenodd" clip-rule="evenodd" d="M31.1827 7.59037C32.2904 7.57399 31.4139 8.1192 32.8836 7.29674C33.8278 6.77059 34.9848 4.79738 37.9597 3.37498C41.1271 1.8329 41.983 2.98211 45.2162 1.61313C43.5823 -0.122325 44.1807 -0.12763 41.3899 0.110123C40.1663 0.229115 39.0086 0.521206 37.5318 1.22576C35.8591 1.99103 34.6992 2.80419 33.2845 3.98992C33.0404 4.17232 31.8091 5.2745 31.6665 5.48549C30.7966 6.88267 31.0306 5.78934 31.1827 7.59037Z" fill="#693638"/>
<path fill-rule="evenodd" clip-rule="evenodd" d="M27.0133 35.0098C28.0054 34.729 28.718 34.4081 29.8294 34.0836C32.2573 33.3378 31.0945 32.991 32.7608 34.1559C32.9239 32.2505 33.0105 30.3622 31.683 28.5584L25.7016 30.5056L27.0133 35.0098Z" fill="#F5625C"/>
<path fill-rule="evenodd" clip-rule="evenodd" d="M36.4732 9.03956C38.3811 8.12801 40.7699 7.10077 42.8891 7.31138C43.0119 7.32667 43.2149 7.38386 43.3378 7.39915C46.1282 7.89546 47.5132 8.80731 49.4032 11.1173C49.0793 4.59225 41.5199 3.6991 36.5546 6.87926C36.3759 7.96883 36.5094 8.16099 36.4732 9.03956Z" fill="#BA9EA1"/>
<path fill-rule="evenodd" clip-rule="evenodd" d="M1.50504 20.5759C5.40991 15.6093 6.92801 14.2981 13.0314 13.8344L10.404 11.7997C6.57831 12.3448 3.57119 13.9707 1.34839 17.4018C1.32803 18.7292 1.43967 19.6687 1.50504 20.5759Z" fill="#BA9EA1"/>
<path fill-rule="evenodd" clip-rule="evenodd" d="M32.7655 34.1562C31.0992 32.9913 32.2619 33.3382 29.8341 34.0839C28.7227 34.4084 28.0101 34.7293 27.018 35.0101C28.6902 38.1281 28.8697 38.7197 31.2948 39.5961C32.8382 37.5965 32.7675 36.7844 32.7655 34.1562Z" fill="#FC867D"/>
<path fill-rule="evenodd" clip-rule="evenodd" d="M16.6455 27.4895C14.445 29.4392 14.48 30.3958 11.4418 30.39C8.87019 30.3997 9.66307 29.7536 6.94387 29.3353L7.69602 31.344C9.66343 32.1688 9.97476 32.7395 12.3847 32.066C15.0672 31.3147 16.9875 30.426 16.6455 27.4895Z" fill="#AB8384"/>
<path fill-rule="evenodd" clip-rule="evenodd" d="M47.5722 20.4181C45.3949 22.2005 43.4662 25.1735 39.6827 23.6439C39.6827 23.6439 38.4774 22.9565 38.4097 22.9375L37.4537 22.3397C39.4039 25.2849 40.0267 26.0593 43.329 25.2894C44.5206 25.0068 45.8423 24.4904 46.8241 23.6657C48.5346 22.2349 48.0696 22.4324 47.5722 20.4181Z" fill="#AB8384"/>
<path fill-rule="evenodd" clip-rule="evenodd" d="M6.78903 21.2332L5.42892 20.367L5.67949 18.2544L2.85478 21.6319C1.33048 21.357 2.80453 22.2746 1.50547 20.5755C1.02578 21.6382 0.168612 19.542 1.50626 22.2566C5.07147 22.5462 2.58786 21.2475 6.78903 21.2332Z" fill="#BA9EA1"/>
<path fill-rule="evenodd" clip-rule="evenodd" d="M43.7078 13.495L47.6877 11.0806L45.377 9.52156C44.5304 10.7514 45.2469 9.75539 44.7421 11.1395C44.3568 12.1129 44.1625 12.3866 43.7078 13.495Z" fill="#BA9EA1"/>
</svg>
