<svg width="19" height="19" viewBox="0 0 19 19" fill="none" xmlns="http://www.w3.org/2000/svg">
<path d="M0.25226 16.0256L2.9774 18.7508M0.25226 14.027L4.97651 18.7508M0.885293 12.6569L6.35058 18.1217L6.98012 18.7508M0.25226 10.0263L2.8824 12.6564L6.34858 16.1206L8.97722 18.7508M0.25226 8.0272L4.8825 12.6569L6.34658 14.1215L10.9768 18.7508M0.571277 6.34562L6.34658 12.1204L6.88361 12.6569L12.6589 18.4313M0.25226 4.02699L2.57088 6.34562L6.34658 10.1208L8.88272 12.6569L12.6589 16.4321L14.9775 18.7508M0.26376 2.03739L4.57249 6.34562L6.34858 8.12021L10.8838 12.6549L12.6589 14.431L16.9671 18.7373M4.47598 0.251293L6.34708 2.12239M10.5723 6.34562L12.6584 8.43173M16.8821 12.6569L18.7532 14.5275M2.47638 0.249793L6.34658 4.1215M8.5732 6.34562L12.6584 10.4328M14.883 12.6569L18.7532 16.5272M0.955297 0.729818L6.34658 6.1191L6.57359 6.34562L12.6589 12.4299L12.8839 12.6549L18.2747 18.0457M18.7527 12.6529H0.25176M18.7527 6.34362H0.25176M12.6589 0.251793V18.7508M6.34708 0.251793V18.7508" stroke="#888888" stroke-width="0.496531" stroke-linecap="round" stroke-linejoin="round"/>
</svg>
