<svg width="3" height="13" viewBox="0 0 3 13" fill="none" xmlns="http://www.w3.org/2000/svg">
<path fill-rule="evenodd" clip-rule="evenodd" d="M1.29869 2.59998C1.94869 2.59998 2.59868 1.94999 2.59868 1.29999C2.59868 0.649995 1.94869 0 1.29869 0C0.648695 0 0 0.649995 0 1.29999C0 1.94999 0.648695 2.59998 1.29869 2.59998ZM1.29869 7.79994C1.94869 7.79994 2.59868 7.14995 2.59868 6.49995C2.59868 5.84996 1.94869 5.19996 1.29869 5.19996C0.648695 5.19996 0 5.84996 0 6.49995C0 7.14995 0.648695 7.79994 1.29869 7.79994ZM1.29869 12.9999C1.94869 12.9999 2.59868 12.3499 2.59868 11.6999C2.59868 11.0499 1.94869 10.3999 1.29869 10.3999C0.648695 10.3999 0 11.0499 0 11.6999C0 12.3499 0.648695 12.9999 1.29869 12.9999Z" fill="#0177E7"/>
</svg>
