<svg width="50" height="40" viewBox="0 0 50 40" fill="none" xmlns="http://www.w3.org/2000/svg">
<path fill-rule="evenodd" clip-rule="evenodd" d="M41.3409 2.00002C41.3409 0.895435 40.1923 0 38.7753 0H33.1615C31.7447 0 30.5961 0.895435 30.5961 2.00002V6.33338C30.5961 7.43796 31.7447 8.33338 33.1615 8.33338H36.6897C38.1066 8.33338 39.2552 9.22883 39.2552 10.3334V37.9998C39.2552 39.1044 40.4039 39.9999 41.8206 39.9999H47.4346C48.8514 39.9999 50 39.1044 50 37.9998V10.333C50 9.22837 48.8514 8.33293 47.4346 8.33293H43.9065C42.4895 8.33293 41.3409 7.4375 41.3409 6.33292V2.00002ZM19.7785 2.00014C19.7785 0.895562 18.6299 0.000125786 17.213 0.000125786H11.5992C10.1823 0.000125786 9.0337 0.895562 9.0337 2.00014V6.33318C9.0337 7.43774 7.88508 8.33319 6.46821 8.33319H2.56548C1.14861 8.33319 0 9.22863 0 10.3332V38.0001C0 39.1046 1.14861 40 2.56548 40H8.17933C9.59622 40 10.7448 39.1046 10.7448 38.0001V10.3335C10.7448 9.22895 11.8934 8.33351 13.3103 8.33351H17.213C18.6299 8.33351 19.7785 7.43807 19.7785 6.3335V2.00014ZM30.4476 17.9522C30.4476 16.8477 29.299 15.9523 27.8821 15.9523H22.2683C20.8513 15.9523 19.7027 16.8477 19.7027 17.9522V30.1428C19.7027 31.2474 20.8513 32.1429 22.2683 32.1429H27.8821C29.299 32.1429 30.4476 31.2474 30.4476 30.1428V17.9522Z" fill="#2B6CB0"/>
</svg>
