<svg width="50" height="40" viewBox="0 0 50 40" fill="none" xmlns="http://www.w3.org/2000/svg">
<g clip-path="url(#clip0_1983_13581)">
<mask id="mask0_1983_13581" style="mask-type:luminance" maskUnits="userSpaceOnUse" x="0" y="0" width="161" height="40">
<path d="M160.626 0H0V40H160.626V0Z" fill="white"/>
</mask>
<g mask="url(#mask0_1983_13581)">
<path d="M50 24.1658C44.7682 38.6972 30.149 41.4434 17.8477 39.4034C14.8179 38.9012 5.84437 36.2492 3.44371 28.9834C3.22848 28.34 1.90397 24.103 4.12251 19.9915C7.59934 13.5575 16.8212 12.8827 21.9536 12.5061C29.553 11.9411 34.7682 14.1852 35.8278 14.656C37.7318 15.5033 39.0066 16.3978 39.851 16.9314C38.4603 15.5818 32.7484 9.06935 20.1159 8.7398C8.85758 8.42591 1.47351 14.5618 0 15.8329C5.23179 1.31712 19.851 -1.44481 32.1523 0.595251C35.1821 1.09742 44.1556 3.7495 46.5563 11.0153C46.7715 11.6586 48.096 15.8957 45.8775 20.0072C42.4007 26.4412 33.1788 27.116 28.0464 27.5083C20.4305 28.0733 15.2318 25.8292 14.1722 25.3584C12.2516 24.4796 10.9769 23.6008 10.1325 23.0672C11.5066 24.4168 17.2351 30.9293 29.851 31.2589C41.1424 31.5728 48.5265 25.4369 50 24.1658Z" fill="#AFEB00"/>
</g>
</g>
<defs>
<clipPath id="clip0_1983_13581">
<rect width="50" height="40" fill="white"/>
</clipPath>
</defs>
</svg>
