<svg width="50" height="45" viewBox="0 0 50 45" fill="none" xmlns="http://www.w3.org/2000/svg">
<g clip-path="url(#clip0_1983_13548)">
<mask id="mask0_1983_13548" style="mask-type:luminance" maskUnits="userSpaceOnUse" x="0" y="0" width="169" height="45">
<path d="M0 0H168.519V45H0V0Z" fill="white"/>
</mask>
<g mask="url(#mask0_1983_13548)">
<path d="M19.5961 1.67408L14.2346 2.44619C5.35044 3.72556 -0.81656 11.9795 0.460179 20.882L1.89116 30.8599C3.1679 39.7624 11.4049 45.9421 20.289 44.6627L25.6506 43.8906C34.5347 42.6113 40.7017 34.3573 39.425 25.4548L37.994 15.4769C36.7173 6.57443 28.4803 0.394711 19.5961 1.67408Z" fill="#FEA421"/>
<path d="M28.0219 0.460705L22.6603 1.23281C13.7762 2.51218 7.60922 10.7662 8.88596 19.6686L10.3169 29.6466C11.5937 38.549 19.8307 44.7287 28.7148 43.4494L34.0764 42.6772C42.9605 41.3979 49.1275 33.1439 47.8508 24.2414L46.4198 14.2635C45.1431 5.36105 36.9061 -0.818668 28.0219 0.460705Z" fill="#FFC337"/>
<path d="M28.0219 0.460705L22.6603 1.23281C13.7762 2.51218 7.60922 10.7662 8.88596 19.6686L10.3169 29.6466C11.5937 38.549 19.8307 44.7287 28.7148 43.4494L34.0764 42.6772C42.9605 41.3979 49.1275 33.1439 47.8508 24.2414L46.4198 14.2635C45.1431 5.36105 36.9061 -0.818668 28.0219 0.460705Z" fill="#FFC337"/>
<path d="M28.0219 0.460705L22.6603 1.23281C13.7762 2.51218 7.60922 10.7662 8.88596 19.6686L10.3169 29.6466C11.5937 38.549 19.8307 44.7287 28.7148 43.4494L34.0764 42.6772C42.9605 41.3979 49.1275 33.1439 47.8508 24.2414L46.4198 14.2635C45.1431 5.36105 36.9061 -0.818668 28.0219 0.460705Z" fill="#FFC337"/>
<path d="M21.4551 16.2916L20.3901 16.4449C19.8381 16.5244 19.4549 17.0373 19.5343 17.5904L20.1276 21.7278C20.2069 22.2809 20.7187 22.6649 21.2707 22.5854L22.3357 22.432C22.8877 22.3525 23.2708 21.8397 23.1915 21.2866L22.5982 17.1492C22.5188 16.596 22.007 16.2121 21.4551 16.2916Z" fill="black"/>
<path d="M34.4765 14.4166L33.4116 14.5699C32.8596 14.6494 32.4764 15.1623 32.5557 15.7154L33.1491 19.8528C33.2284 20.4059 33.7402 20.7899 34.2922 20.7104L35.3572 20.557C35.9092 20.4775 36.2923 19.9647 36.213 19.4116L35.6196 15.2742C35.5403 14.721 35.0285 14.3371 34.4765 14.4166Z" fill="black"/>
</g>
</g>
<defs>
<clipPath id="clip0_1983_13548">
<rect width="50" height="45" fill="white"/>
</clipPath>
</defs>
</svg>
