<svg width="50" height="50" viewBox="0 0 50 50" fill="none" xmlns="http://www.w3.org/2000/svg">
<path fill-rule="evenodd" clip-rule="evenodd" d="M24.0568 0.819824C22.7582 0.830414 21.4622 1.31656 20.4713 2.27825C18.4678 4.22347 18.4678 7.37489 20.4713 9.31977L34.1941 22.64L37.4207 19.5082L37.5061 19.4238C39.6452 17.2588 39.6165 13.8196 37.4207 11.6879L27.7257 2.27825L27.639 2.19642C26.6599 1.28864 25.4023 0.829772 24.1409 0.819824H24.0568ZM7.75377 15.5278L33.8664 40.9308L41.0687 33.9242L14.9561 8.52126L7.75377 15.5278ZM2.32336 21.3035L2.23892 21.387C1.30116 22.3322 0.830131 23.5483 0.826172 24.7658V24.7973C0.83046 26.0507 1.32952 27.3025 2.32336 28.2586C4.32028 30.1799 7.55776 30.1799 9.5537 28.2586C11.5506 26.3375 11.5506 23.2246 9.5537 21.3035L5.9392 17.8266L2.32336 21.3035ZM39.2675 20.8708C37.2718 22.7919 37.2718 25.9048 39.2675 27.8256L42.8833 31.3037L46.4987 27.8256L46.5832 27.7429C48.4944 25.8162 48.4667 22.7646 46.4987 20.8708C45.5 19.9111 44.1915 19.4309 42.8829 19.4309C41.5745 19.4309 40.2659 19.9111 39.2675 20.8708ZM11.3969 29.9475L11.3095 30.0344C9.17506 32.1828 9.20409 34.8464 11.3969 36.981L21.1035 46.5289L21.1899 46.6107C22.1752 47.5263 23.4424 47.9858 24.7114 47.9896H24.7424C26.0489 47.9858 27.3538 47.499 28.3499 46.5289C30.3515 44.5818 30.3515 41.424 28.3499 39.4765L14.6202 26.8111L11.3969 29.9475Z" fill="url(#paint0_linear_1983_13573)"/>
<defs>
<linearGradient id="paint0_linear_1983_13573" x1="34.4636" y1="9.56906" x2="10.4063" y2="36.8044" gradientUnits="userSpaceOnUse">
<stop stop-color="#F170A8"/>
<stop offset="0.473958" stop-color="#D561CE"/>
<stop offset="1" stop-color="#6EBFFA"/>
</linearGradient>
</defs>
</svg>
